<svg id="svg" version="1.1" xmlns="http://www.w3.org/2000/svg" xmlns:xlink="http://www.w3.org/1999/xlink" width="400" height="400" viewBox="0, 0, 400,400"><g id="svgg"><path id="path0" d="M109.557 87.399 C 107.077 88.747,107.200 87.048,107.200 120.026 L 107.200 150.080 108.577 151.457 L 109.954 152.834 121.966 152.717 C 136.715 152.573,135.661 153.055,136.022 146.298 C 136.411 139.003,137.406 138.000,144.254 138.000 C 148.371 138.000,148.487 137.975,149.631 136.831 L 150.800 135.662 150.800 120.418 C 150.800 100.465,150.659 100.802,159.000 100.804 C 163.752 100.805,165.152 101.282,166.259 103.276 C 166.672 104.021,166.774 124.554,166.786 209.113 C 166.801 322.394,166.676 315.827,168.847 317.348 C 169.688 317.937,172.713 318.000,200.083 318.000 L 230.387 318.000 231.694 316.833 L 233.000 315.666 233.200 209.733 C 233.371 119.206,233.482 103.676,233.967 102.947 C 235.128 101.200,236.451 100.800,241.062 100.801 C 249.331 100.804,249.200 100.488,249.200 120.418 L 249.200 135.662 250.369 136.831 C 251.517 137.979,251.617 138.000,255.869 138.003 C 262.683 138.007,263.626 138.945,263.988 146.077 C 264.344 153.080,263.293 152.571,277.711 152.726 C 290.473 152.864,291.356 152.732,292.353 150.544 C 292.670 149.849,292.800 140.844,292.800 119.670 C 292.800 86.839,292.940 88.713,290.396 87.398 C 288.694 86.518,111.176 86.519,109.557 87.399 " stroke="none" fill="#dbdbdb" fill-rule="evenodd"></path><path id="path1" d="M188.000 5.600 C 188.000 5.840,186.408 6.000,184.024 6.000 C 181.804 6.000,179.938 6.177,179.800 6.400 C 179.664 6.620,177.943 6.800,175.976 6.800 C 173.859 6.800,172.400 6.963,172.400 7.200 C 172.400 7.420,171.421 7.600,170.224 7.600 C 169.027 7.600,167.936 7.780,167.800 8.000 C 167.664 8.220,166.674 8.400,165.600 8.400 C 164.526 8.400,163.524 8.599,163.374 8.843 C 163.183 9.151,162.996 9.121,162.756 8.743 C 162.567 8.444,162.409 8.389,162.406 8.621 C 162.403 8.852,161.746 9.060,160.947 9.083 C 160.148 9.105,159.383 9.293,159.247 9.499 C 159.111 9.705,158.371 9.827,157.601 9.770 C 156.832 9.713,155.957 9.870,155.656 10.119 C 155.356 10.368,154.505 10.520,153.765 10.456 C 153.025 10.393,152.190 10.488,151.910 10.668 C 151.208 11.118,147.996 11.961,146.900 11.982 C 146.405 11.992,146.000 12.180,146.000 12.400 C 146.000 12.620,145.608 12.800,145.128 12.800 C 144.256 12.800,141.577 13.617,141.200 13.998 C 140.966 14.234,140.013 14.495,139.300 14.518 C 139.025 14.526,138.800 14.694,138.800 14.890 C 138.800 15.087,138.665 15.168,138.500 15.071 C 138.335 14.973,137.750 15.080,137.200 15.306 C 136.650 15.533,135.961 15.768,135.669 15.829 C 135.377 15.889,134.837 16.070,134.469 16.231 C 134.101 16.391,133.350 16.596,132.800 16.686 C 132.250 16.776,131.740 17.018,131.667 17.225 C 131.593 17.431,131.188 17.600,130.767 17.600 C 130.345 17.600,130.000 17.780,130.000 18.000 C 130.000 18.220,129.550 18.400,129.000 18.400 C 128.450 18.400,128.000 18.547,128.000 18.728 C 128.000 18.908,127.100 19.300,126.000 19.600 C 124.900 19.900,124.000 20.292,124.000 20.472 C 124.000 20.653,123.651 20.800,123.224 20.800 C 122.797 20.800,122.336 20.980,122.200 21.200 C 122.064 21.420,121.503 21.600,120.953 21.600 C 120.388 21.600,120.060 21.774,120.200 22.000 C 120.348 22.240,119.836 22.402,118.924 22.406 C 117.793 22.411,117.555 22.512,118.000 22.800 C 118.468 23.102,118.357 23.189,117.500 23.194 C 116.895 23.197,116.400 23.380,116.400 23.600 C 116.400 23.820,116.122 24.000,115.783 24.000 C 115.444 24.000,114.780 24.360,114.308 24.800 C 113.836 25.240,113.134 25.600,112.748 25.600 C 112.363 25.600,111.936 25.780,111.800 26.000 C 111.664 26.220,111.203 26.400,110.776 26.400 C 110.349 26.400,110.000 26.591,110.000 26.824 C 110.000 27.057,109.820 27.136,109.600 27.000 C 109.380 26.864,109.200 27.011,109.200 27.326 C 109.200 27.644,108.620 28.036,107.900 28.206 C 107.185 28.374,106.510 28.541,106.400 28.577 C 105.688 28.808,102.081 31.186,101.056 32.100 C 100.377 32.705,99.504 33.200,99.115 33.200 C 98.470 33.200,97.574 33.780,96.184 35.100 C 95.894 35.375,95.483 35.600,95.271 35.600 C 95.058 35.600,94.307 36.140,93.600 36.800 C 92.893 37.460,91.968 38.000,91.544 38.000 C 91.120 38.000,90.139 38.634,89.364 39.409 C 88.589 40.185,87.785 40.714,87.577 40.586 C 87.370 40.458,87.200 40.543,87.200 40.776 C 87.200 41.009,86.942 41.200,86.627 41.200 C 86.312 41.200,85.939 41.563,85.798 42.006 C 85.657 42.449,85.390 42.717,85.203 42.602 C 85.017 42.487,84.601 42.656,84.280 42.977 C 83.958 43.299,83.605 43.472,83.495 43.361 C 83.384 43.251,82.452 43.890,81.423 44.780 C 80.393 45.671,79.388 46.400,79.188 46.400 C 78.989 46.400,78.940 46.700,79.081 47.066 C 79.252 47.513,79.183 47.636,78.868 47.442 C 78.611 47.283,78.400 47.343,78.400 47.576 C 78.400 47.809,78.170 48.000,77.888 48.000 C 77.607 48.000,77.117 48.360,76.800 48.800 C 76.483 49.240,75.983 49.600,75.688 49.600 C 75.394 49.600,75.251 49.759,75.371 49.954 C 75.491 50.148,75.054 50.529,74.400 50.800 C 73.746 51.071,73.309 51.452,73.429 51.646 C 73.549 51.841,73.470 52.000,73.254 52.000 C 73.038 52.000,72.146 52.730,71.271 53.622 C 70.203 54.713,69.613 55.073,69.472 54.722 C 69.357 54.435,69.249 54.616,69.232 55.124 C 69.214 55.632,69.044 55.951,68.853 55.833 C 68.413 55.561,67.106 56.973,67.466 57.332 C 67.613 57.480,67.435 57.600,67.070 57.600 C 66.705 57.600,66.182 57.960,65.907 58.400 C 65.632 58.840,65.181 59.200,64.904 59.200 C 64.627 59.200,64.438 59.335,64.485 59.500 C 64.607 59.931,63.473 61.600,63.058 61.600 C 62.866 61.600,62.079 62.318,61.310 63.196 C 60.540 64.074,59.751 64.693,59.555 64.572 C 59.360 64.452,59.200 64.552,59.200 64.796 C 59.200 65.039,58.387 66.006,57.393 66.945 C 56.399 67.884,55.709 68.776,55.860 68.926 C 56.010 69.077,55.935 69.200,55.694 69.200 C 55.452 69.200,55.140 69.560,55.000 70.000 C 54.860 70.440,54.556 70.800,54.324 70.800 C 54.065 70.800,54.097 70.565,54.408 70.190 C 54.686 69.855,54.829 69.495,54.724 69.391 C 54.620 69.287,54.288 69.696,53.987 70.301 C 53.686 70.905,52.756 72.054,51.920 72.854 C 51.084 73.653,50.400 74.609,50.400 74.977 C 50.400 75.382,50.217 75.534,49.938 75.362 C 49.661 75.190,49.585 75.252,49.748 75.515 C 49.897 75.757,49.397 76.577,48.636 77.337 C 47.876 78.098,47.376 78.857,47.527 79.024 C 47.677 79.191,47.485 79.214,47.100 79.076 C 46.715 78.938,46.400 79.007,46.400 79.229 C 46.400 79.682,45.842 80.430,44.483 81.799 C 43.822 82.465,43.711 82.780,44.083 82.930 C 44.457 83.079,44.434 83.146,44.000 83.171 C 43.437 83.203,42.671 84.268,41.296 86.929 C 40.975 87.551,40.462 88.155,40.156 88.272 C 39.850 88.390,39.600 88.736,39.600 89.043 C 39.600 89.349,39.409 89.600,39.176 89.600 C 38.943 89.600,38.858 89.770,38.986 89.977 C 39.114 90.185,38.585 90.989,37.809 91.764 C 36.939 92.635,36.400 93.561,36.400 94.187 C 36.400 94.744,36.217 95.155,35.993 95.100 C 35.769 95.045,35.184 95.720,34.693 96.600 C 34.202 97.480,33.665 98.260,33.500 98.333 C 33.335 98.407,33.200 98.697,33.200 98.979 C 33.200 99.261,32.867 99.921,32.461 100.446 C 32.055 100.971,31.601 101.895,31.453 102.500 C 31.306 103.105,31.008 103.600,30.792 103.600 C 30.577 103.600,30.400 103.870,30.400 104.200 C 30.400 104.530,30.238 104.800,30.040 104.800 C 29.574 104.800,27.850 107.615,27.835 108.400 C 27.828 108.730,27.494 109.241,27.092 109.536 C 26.506 109.966,26.457 110.187,26.847 110.656 C 27.243 111.134,27.173 111.282,26.466 111.467 C 25.983 111.593,25.600 112.011,25.600 112.413 C 25.600 112.809,25.398 113.201,25.150 113.283 C 24.903 113.366,24.700 113.921,24.700 114.517 C 24.700 115.113,24.543 115.600,24.350 115.600 C 24.157 115.600,24.000 115.870,24.000 116.200 C 24.000 116.530,23.820 116.800,23.600 116.800 C 23.380 116.800,23.200 117.171,23.200 117.624 C 23.200 118.084,23.019 118.336,22.790 118.194 C 22.565 118.055,22.406 118.089,22.437 118.270 C 22.609 119.257,22.347 120.414,22.000 120.200 C 21.774 120.060,21.600 120.388,21.600 120.953 C 21.600 121.503,21.420 122.064,21.200 122.200 C 20.980 122.336,20.800 122.797,20.800 123.224 C 20.800 123.651,20.620 124.000,20.400 124.000 C 20.180 124.000,20.000 124.450,20.000 125.000 C 20.000 125.550,19.864 126.000,19.698 126.000 C 19.272 126.000,18.421 128.033,18.317 129.300 C 18.268 129.884,18.150 130.283,18.054 130.187 C 17.783 129.916,16.800 132.000,16.800 132.846 C 16.800 133.261,16.620 133.600,16.400 133.600 C 16.180 133.600,16.000 134.039,16.000 134.576 C 16.000 135.113,15.820 135.664,15.600 135.800 C 15.380 135.936,15.200 136.487,15.200 137.024 C 15.200 137.561,15.020 138.000,14.800 138.000 C 14.580 138.000,14.400 138.408,14.400 138.906 C 14.400 139.404,14.040 140.796,13.600 142.000 C 13.160 143.204,12.800 144.697,12.800 145.318 C 12.800 145.969,12.631 146.343,12.400 146.200 C 12.180 146.064,12.000 146.315,12.000 146.757 C 12.000 147.199,11.714 148.605,11.365 149.880 C 10.278 153.856,10.123 154.594,10.228 155.308 C 10.283 155.688,10.183 156.000,10.004 156.000 C 9.826 156.000,9.717 156.537,9.762 157.193 C 9.808 157.848,9.676 158.441,9.469 158.510 C 9.262 158.579,9.103 159.663,9.114 160.918 C 9.125 162.173,8.969 163.200,8.767 163.200 C 8.565 163.200,8.400 164.010,8.400 165.000 C 8.400 165.990,8.220 166.800,8.000 166.800 C 7.769 166.800,7.600 168.067,7.600 169.800 C 7.600 171.533,7.431 172.800,7.200 172.800 C 6.969 172.800,6.800 174.067,6.800 175.800 C 6.800 177.533,6.631 178.800,6.400 178.800 C 6.156 178.800,6.000 180.667,6.000 183.600 C 6.000 186.533,5.844 188.400,5.600 188.400 C 5.092 188.400,5.050 209.860,5.557 210.174 C 5.754 210.295,5.942 212.685,5.976 215.485 C 6.010 218.285,6.204 220.679,6.406 220.804 C 6.609 220.929,6.801 222.689,6.833 224.716 C 6.866 226.742,7.051 228.400,7.246 228.400 C 7.441 228.400,7.600 229.195,7.600 230.167 C 7.600 231.205,7.806 232.017,8.100 232.136 C 8.476 232.289,8.452 232.444,8.000 232.763 C 7.593 233.051,7.561 233.190,7.900 233.194 C 8.245 233.198,8.402 233.973,8.406 235.700 C 8.410 237.420,8.530 238.014,8.789 237.605 C 9.054 237.185,9.145 237.518,9.097 238.728 C 9.051 239.862,9.227 240.573,9.614 240.817 C 10.083 241.114,10.090 241.189,9.651 241.194 C 9.280 241.198,9.223 241.362,9.474 241.700 C 9.679 241.975,9.816 242.605,9.778 243.100 C 9.740 243.595,9.829 244.000,9.976 244.000 C 10.123 244.000,10.285 244.696,10.335 245.546 C 10.385 246.396,10.869 248.486,11.409 250.190 C 11.950 251.894,12.294 253.448,12.173 253.644 C 12.052 253.840,12.143 254.000,12.376 254.000 C 12.609 254.000,12.800 254.630,12.800 255.400 C 12.800 256.170,12.980 256.800,13.200 256.800 C 13.420 256.800,13.600 257.411,13.600 258.157 C 13.600 258.962,13.832 259.603,14.169 259.733 C 14.504 259.861,14.654 260.272,14.534 260.730 C 14.422 261.159,14.526 261.631,14.765 261.778 C 15.004 261.926,15.200 262.497,15.200 263.047 C 15.200 263.612,15.374 263.940,15.600 263.800 C 15.833 263.656,16.000 264.063,16.000 264.776 C 16.000 265.449,16.180 266.000,16.400 266.000 C 16.620 266.000,16.779 266.135,16.753 266.300 C 16.596 267.291,16.860 268.410,17.200 268.200 C 17.427 268.060,17.600 268.396,17.600 268.976 C 17.600 269.539,17.780 270.000,18.000 270.000 C 18.220 270.000,18.400 270.450,18.400 271.000 C 18.400 271.550,18.580 272.000,18.800 272.000 C 19.020 272.000,19.200 272.641,19.200 273.424 C 19.200 274.271,19.362 274.747,19.600 274.600 C 19.833 274.456,20.000 274.863,20.000 275.576 C 20.000 276.249,20.180 276.800,20.400 276.800 C 20.620 276.800,20.806 277.205,20.813 277.700 C 20.827 278.720,21.745 280.122,22.140 279.727 C 22.409 279.458,22.540 280.401,22.428 281.800 C 22.375 282.465,22.434 282.499,22.776 282.000 C 23.105 281.520,23.189 281.616,23.194 282.476 C 23.197 283.068,23.380 283.664,23.600 283.800 C 23.820 283.936,24.000 284.319,24.000 284.652 C 24.000 285.379,25.003 286.464,25.352 286.114 C 25.489 285.978,25.600 286.437,25.600 287.133 C 25.600 287.830,25.780 288.400,26.000 288.400 C 26.220 288.400,26.400 288.720,26.400 289.112 C 26.400 289.503,26.760 290.083,27.200 290.400 C 27.670 290.739,28.000 291.435,28.000 292.088 C 28.000 292.772,28.215 293.200,28.557 293.200 C 28.864 293.200,29.218 293.470,29.345 293.800 C 29.471 294.130,29.356 294.403,29.087 294.406 C 28.756 294.410,28.738 294.506,29.030 294.706 C 29.267 294.868,29.795 295.575,30.204 296.278 C 30.612 296.981,31.122 297.448,31.335 297.316 C 31.566 297.174,31.592 297.289,31.401 297.599 C 31.208 297.911,31.303 298.298,31.639 298.561 C 31.948 298.802,32.462 299.540,32.782 300.200 C 33.102 300.860,33.732 301.834,34.182 302.365 C 34.699 302.974,34.779 303.220,34.400 303.034 C 34.070 302.872,34.205 303.097,34.700 303.534 C 35.195 303.971,35.600 304.601,35.600 304.933 C 35.600 305.266,36.140 306.078,36.800 306.738 C 37.460 307.398,38.000 308.117,38.000 308.336 C 38.000 308.554,38.225 308.824,38.500 308.935 C 38.873 309.086,38.862 309.145,38.458 309.168 C 38.144 309.187,38.439 309.689,39.158 310.360 C 39.841 310.999,40.400 311.809,40.400 312.160 C 40.400 312.512,40.580 312.800,40.800 312.800 C 41.020 312.800,41.200 313.088,41.200 313.440 C 41.200 313.791,41.734 314.578,42.386 315.187 C 43.038 315.796,43.458 316.408,43.319 316.547 C 43.180 316.686,43.277 316.800,43.533 316.800 C 43.790 316.800,44.000 317.047,44.000 317.349 C 44.000 317.651,44.585 318.416,45.300 319.049 C 46.015 319.682,46.653 320.470,46.717 320.800 C 46.781 321.130,47.456 321.967,48.217 322.661 C 48.978 323.354,49.602 324.074,49.604 324.261 C 49.607 324.447,50.417 325.476,51.404 326.547 C 52.392 327.618,53.200 328.632,53.200 328.801 C 53.200 328.969,53.540 329.195,53.955 329.304 C 54.370 329.413,54.955 330.013,55.255 330.639 C 55.555 331.265,56.221 331.986,56.736 332.243 C 57.384 332.566,57.507 332.775,57.136 332.923 C 56.841 333.041,57.050 333.154,57.600 333.175 C 58.150 333.195,58.418 333.344,58.195 333.506 C 57.945 333.687,58.137 334.140,58.695 334.686 C 59.193 335.173,59.600 335.475,59.600 335.357 C 59.600 335.239,59.839 335.381,60.131 335.671 C 60.423 335.962,61.332 336.787,62.151 337.506 C 62.970 338.224,63.532 338.986,63.399 339.201 C 63.263 339.422,63.428 339.487,63.779 339.353 C 64.219 339.184,64.400 339.360,64.400 339.957 C 64.400 340.477,64.655 340.800,65.067 340.800 C 65.433 340.800,65.629 340.904,65.501 341.032 C 65.199 341.334,68.420 344.234,68.896 344.090 C 69.096 344.030,69.168 344.128,69.056 344.309 C 68.944 344.490,69.018 344.900,69.220 345.219 C 69.527 345.703,69.589 345.707,69.594 345.239 C 69.598 344.862,69.845 344.960,70.347 345.539 C 70.758 346.012,71.328 346.400,71.614 346.400 C 71.899 346.400,72.019 346.514,71.879 346.654 C 71.613 346.920,75.542 350.800,76.078 350.800 C 76.247 350.800,77.034 351.430,77.827 352.200 C 78.620 352.970,79.390 353.600,79.538 353.600 C 79.687 353.600,80.293 354.050,80.887 354.600 C 81.480 355.150,82.164 355.600,82.406 355.600 C 82.649 355.600,82.736 355.780,82.600 356.000 C 82.395 356.332,82.972 356.592,83.300 356.316 C 83.355 356.269,83.850 356.623,84.400 357.101 C 84.950 357.579,85.549 357.965,85.730 357.959 C 85.912 357.953,86.383 358.319,86.777 358.774 C 87.171 359.228,87.698 359.600,87.947 359.600 C 88.196 359.600,88.400 359.780,88.400 360.000 C 88.400 360.220,88.670 360.400,89.000 360.400 C 89.330 360.400,89.600 360.580,89.600 360.800 C 89.600 361.020,89.735 361.179,89.900 361.153 C 90.935 360.989,91.393 361.217,90.800 361.600 C 90.336 361.900,90.462 361.989,91.353 361.994 C 91.987 361.997,92.797 362.324,93.153 362.719 C 94.204 363.886,96.267 365.200,97.062 365.206 C 97.685 365.211,97.706 365.273,97.200 365.600 C 96.715 365.914,96.772 365.989,97.500 365.994 C 97.995 365.997,98.401 366.135,98.403 366.300 C 98.407 366.659,100.344 367.600,101.080 367.600 C 101.366 367.600,101.600 367.780,101.600 368.000 C 101.600 368.220,101.870 368.400,102.200 368.400 C 102.530 368.400,102.800 368.580,102.800 368.800 C 102.800 369.020,103.064 369.200,103.386 369.200 C 103.708 369.200,104.147 369.526,104.360 369.925 C 104.574 370.324,105.854 371.230,107.206 371.939 C 108.558 372.648,109.529 372.996,109.363 372.714 C 109.198 372.431,109.423 372.515,109.863 372.900 C 110.303 373.285,110.874 373.600,111.131 373.600 C 111.389 373.600,111.600 373.746,111.600 373.925 C 111.600 374.361,114.393 375.433,115.111 375.273 C 115.431 375.202,115.565 375.333,115.417 375.573 C 115.271 375.808,115.433 376.000,115.776 376.000 C 116.119 376.000,116.400 376.180,116.400 376.400 C 116.400 376.620,116.771 376.800,117.224 376.800 C 117.705 376.800,117.938 376.977,117.783 377.227 C 117.638 377.461,117.763 377.620,118.060 377.579 C 119.077 377.440,120.600 377.663,120.072 377.874 C 119.327 378.172,121.516 379.257,122.571 379.113 C 123.064 379.046,123.360 379.202,123.300 379.500 C 123.237 379.817,123.676 380.002,124.500 380.006 C 125.410 380.010,125.632 380.118,125.241 380.366 C 124.861 380.607,125.177 380.720,126.228 380.720 C 127.078 380.720,127.839 380.918,127.920 381.160 C 128.001 381.402,128.240 381.600,128.453 381.600 C 128.665 381.600,129.584 381.960,130.494 382.400 C 131.405 382.840,132.466 383.200,132.852 383.200 C 133.237 383.200,133.664 383.380,133.800 383.600 C 133.936 383.820,134.397 384.000,134.824 384.000 C 135.251 384.000,135.600 384.143,135.600 384.318 C 135.600 384.493,136.275 384.681,137.100 384.736 C 137.925 384.790,138.660 385.007,138.733 385.218 C 138.807 385.428,139.201 385.600,139.610 385.600 C 140.018 385.600,140.464 385.780,140.600 386.000 C 140.736 386.220,141.287 386.400,141.824 386.400 C 142.361 386.400,142.800 386.542,142.800 386.715 C 142.800 386.888,143.382 387.074,144.093 387.128 C 144.805 387.183,145.561 387.401,145.773 387.613 C 145.986 387.826,146.634 388.000,147.213 388.000 C 147.793 388.000,148.387 388.120,148.534 388.268 C 148.682 388.415,149.477 388.604,150.301 388.687 C 151.125 388.771,151.860 389.010,151.933 389.219 C 152.007 389.429,152.761 389.600,153.610 389.600 C 154.458 389.600,155.275 389.797,155.424 390.038 C 155.573 390.280,156.240 390.397,156.907 390.299 C 157.574 390.201,158.675 390.398,159.355 390.737 C 160.039 391.079,162.067 391.431,163.903 391.527 C 165.725 391.623,167.312 391.858,167.431 392.051 C 167.550 392.243,168.346 392.400,169.200 392.400 C 170.054 392.400,170.869 392.589,171.012 392.819 C 171.154 393.050,171.570 393.209,171.935 393.173 C 173.999 392.971,179.614 393.254,179.430 393.551 C 179.311 393.744,181.056 393.933,183.307 393.972 C 185.558 394.010,187.571 394.212,187.780 394.421 C 188.289 394.929,211.715 394.925,212.223 394.417 C 212.433 394.207,214.541 394.007,216.907 393.972 C 219.273 393.937,221.308 393.749,221.428 393.554 C 221.549 393.360,223.167 393.200,225.024 393.200 C 227.008 393.200,228.400 393.035,228.400 392.800 C 228.400 392.580,229.390 392.400,230.600 392.400 C 231.810 392.400,232.800 392.248,232.800 392.062 C 232.800 391.876,233.835 391.694,235.100 391.658 C 237.556 391.588,241.600 390.828,241.600 390.436 C 241.600 390.306,242.185 390.177,242.900 390.148 C 244.964 390.066,247.756 389.527,248.288 389.107 C 248.556 388.895,249.276 388.656,249.888 388.576 C 252.142 388.281,253.811 387.891,254.227 387.562 C 254.461 387.376,255.226 387.180,255.927 387.127 C 256.627 387.073,257.200 386.888,257.200 386.715 C 257.200 386.542,257.560 386.400,258.000 386.400 C 258.440 386.400,258.800 386.259,258.800 386.087 C 258.800 385.915,259.260 385.736,259.821 385.690 C 260.383 385.643,261.181 385.424,261.595 385.203 C 262.009 384.981,262.794 384.800,263.340 384.800 C 263.886 384.800,264.397 384.610,264.474 384.378 C 264.551 384.146,264.921 383.911,265.296 383.856 C 265.670 383.801,266.102 383.631,266.255 383.478 C 266.408 383.325,266.843 383.200,267.221 383.200 C 267.599 383.200,268.411 382.939,269.026 382.620 C 269.640 382.302,270.318 382.150,270.533 382.282 C 270.750 382.416,270.796 382.318,270.638 382.062 C 270.445 381.749,270.779 381.598,271.676 381.594 C 272.678 381.589,272.854 381.493,272.400 381.200 C 271.963 380.918,272.289 380.809,273.600 380.800 C 274.911 380.791,275.237 380.682,274.800 380.400 C 274.315 380.086,274.372 380.011,275.100 380.006 C 275.595 380.003,276.000 379.859,276.000 379.687 C 276.000 379.515,276.495 379.337,277.100 379.290 C 278.497 379.183,281.646 377.598,281.365 377.143 C 281.248 376.954,281.343 376.800,281.576 376.800 C 281.809 376.800,282.003 377.025,282.006 377.300 C 282.010 377.610,282.124 377.648,282.306 377.400 C 282.789 376.743,285.068 375.601,285.344 375.877 C 285.485 376.018,285.600 375.923,285.600 375.667 C 285.600 375.410,285.870 375.200,286.200 375.200 C 286.530 375.200,286.800 375.020,286.800 374.800 C 286.800 374.580,287.103 374.400,287.474 374.400 C 287.845 374.400,288.594 373.995,289.139 373.500 C 289.683 373.005,290.001 372.823,289.844 373.095 C 289.652 373.429,289.761 373.513,290.177 373.354 C 290.517 373.223,290.696 372.955,290.574 372.758 C 290.452 372.561,290.543 372.400,290.776 372.400 C 291.669 372.400,291.828 372.327,292.788 371.476 C 293.577 370.776,293.658 370.756,293.188 371.375 C 292.606 372.141,292.615 372.141,293.955 371.375 C 294.700 370.949,295.396 370.285,295.502 369.900 C 295.607 369.515,295.953 369.200,296.270 369.200 C 296.625 369.200,296.732 369.392,296.547 369.700 C 296.343 370.040,296.463 370.024,296.923 369.651 C 297.656 369.057,297.851 368.598,297.200 369.000 C 296.980 369.136,296.800 369.142,296.800 369.014 C 296.800 368.798,298.657 367.910,299.268 367.834 C 299.415 367.815,299.985 367.410,300.534 366.932 C 301.082 366.455,301.611 366.145,301.709 366.242 C 301.806 366.340,302.114 366.145,302.392 365.810 C 302.670 365.474,303.146 365.200,303.449 365.200 C 303.752 365.200,304.000 365.020,304.000 364.800 C 304.000 364.580,304.236 364.400,304.525 364.400 C 304.813 364.400,305.436 364.040,305.908 363.600 C 306.380 363.160,307.044 362.800,307.383 362.800 C 307.722 362.800,308.000 362.620,308.000 362.400 C 308.000 362.180,308.320 362.000,308.712 362.000 C 309.103 362.000,309.683 361.640,310.000 361.200 C 310.317 360.760,310.807 360.400,311.088 360.400 C 311.370 360.400,311.600 360.220,311.600 360.000 C 311.600 359.780,311.870 359.600,312.200 359.600 C 312.530 359.600,312.800 359.432,312.800 359.227 C 312.800 359.022,313.166 358.738,313.613 358.596 C 314.060 358.454,314.866 357.898,315.404 357.360 C 315.942 356.822,316.476 356.386,316.591 356.391 C 317.431 356.427,317.600 356.333,317.600 355.827 C 317.600 355.512,317.960 355.140,318.400 355.000 C 318.841 354.860,319.383 354.405,319.607 353.988 C 319.866 353.504,320.251 353.321,320.672 353.483 C 321.071 353.636,321.231 353.574,321.078 353.326 C 320.939 353.101,321.269 352.715,321.813 352.467 C 322.356 352.220,322.800 351.833,322.800 351.609 C 322.800 351.384,323.025 351.196,323.300 351.191 C 323.977 351.179,328.400 346.996,328.400 346.368 C 328.400 346.092,328.505 345.972,328.634 346.100 C 328.895 346.362,329.944 345.577,331.657 343.841 C 332.286 343.203,332.801 342.843,332.803 343.041 C 332.804 343.238,333.133 342.904,333.533 342.297 C 333.933 341.690,334.362 341.295,334.486 341.420 C 334.611 341.544,334.957 341.094,335.256 340.418 C 335.575 339.697,336.014 339.273,336.320 339.391 C 336.607 339.501,336.749 339.441,336.636 339.259 C 336.417 338.903,339.057 336.160,339.522 336.260 C 339.675 336.293,339.754 336.155,339.698 335.953 C 339.641 335.750,340.041 335.382,340.585 335.134 C 341.129 334.886,341.480 334.529,341.364 334.342 C 341.248 334.154,341.356 334.000,341.605 334.000 C 342.377 334.000,343.277 332.898,342.696 332.664 C 342.423 332.553,342.590 332.449,343.066 332.432 C 343.624 332.411,344.119 331.980,344.455 331.220 C 344.803 330.434,345.079 330.200,345.283 330.520 C 345.576 330.981,345.626 330.864,345.594 329.794 C 345.590 329.681,346.662 328.511,347.974 327.194 C 349.287 325.877,350.182 324.800,349.965 324.800 C 349.747 324.800,349.801 324.550,350.084 324.244 C 350.458 323.842,350.681 323.814,350.894 324.144 C 351.088 324.446,351.190 324.389,351.194 323.975 C 351.197 323.631,351.740 322.832,352.400 322.200 C 353.060 321.568,353.600 320.814,353.600 320.525 C 353.600 320.236,353.780 320.000,354.000 320.000 C 354.220 320.000,354.400 319.744,354.400 319.431 C 354.400 319.118,354.954 318.308,355.631 317.631 C 356.308 316.954,356.739 316.400,356.588 316.400 C 356.438 316.400,356.893 315.860,357.600 315.200 C 358.307 314.540,358.658 314.000,358.381 314.000 C 358.104 314.000,358.265 313.664,358.739 313.253 C 359.212 312.842,359.600 312.278,359.600 312.000 C 359.600 311.722,359.939 311.199,360.354 310.840 C 360.769 310.480,361.509 309.335,361.997 308.295 C 362.486 307.256,363.046 306.505,363.243 306.626 C 363.439 306.748,363.603 306.342,363.606 305.724 C 363.611 304.851,363.699 304.734,364.000 305.200 C 364.352 305.745,364.493 305.494,364.366 304.545 C 364.347 304.404,364.572 304.141,364.866 303.959 C 365.160 303.778,365.416 303.488,365.435 303.315 C 365.529 302.451,366.132 301.634,366.504 301.864 C 366.738 302.009,366.806 301.933,366.658 301.694 C 366.512 301.458,366.656 301.001,366.977 300.680 C 367.299 300.358,367.450 299.984,367.314 299.848 C 367.178 299.711,367.287 299.600,367.557 299.600 C 367.827 299.600,367.936 299.420,367.800 299.200 C 367.664 298.980,367.743 298.800,367.976 298.800 C 368.209 298.800,368.403 298.395,368.406 297.900 C 368.410 297.285,368.515 297.162,368.737 297.511 C 368.971 297.881,369.192 297.736,369.534 296.986 C 369.861 296.268,369.870 296.033,369.563 296.223 C 369.268 296.405,369.281 296.196,369.603 295.594 C 369.992 294.868,370.161 294.800,370.469 295.246 C 370.751 295.653,370.792 295.583,370.624 294.979 C 370.499 294.527,370.667 293.808,370.999 293.379 C 371.594 292.610,371.599 292.611,371.373 293.400 C 371.205 293.991,371.305 293.938,371.758 293.200 C 372.096 292.650,372.378 291.885,372.386 291.500 C 372.394 291.115,372.591 290.800,372.824 290.800 C 373.057 290.800,373.136 290.620,373.000 290.400 C 372.864 290.180,372.898 289.999,373.076 289.997 C 373.254 289.995,373.608 289.545,373.863 288.996 C 374.117 288.448,374.162 288.100,373.963 288.223 C 373.233 288.674,373.624 287.759,374.400 287.200 C 374.840 286.883,375.200 286.393,375.200 286.112 C 375.200 285.830,375.425 285.597,375.700 285.594 C 376.039 285.590,376.011 285.468,375.613 285.216 C 375.119 284.904,375.166 284.723,375.913 284.076 C 376.401 283.652,376.806 283.057,376.813 282.753 C 376.820 282.449,377.084 281.858,377.400 281.441 C 377.716 281.024,377.880 280.529,377.764 280.341 C 377.648 280.153,377.743 280.000,377.976 280.000 C 378.209 280.000,378.400 279.640,378.400 279.200 C 378.400 278.760,378.580 278.400,378.800 278.400 C 379.020 278.400,379.200 277.860,379.200 277.200 C 379.200 276.540,379.380 276.000,379.600 276.000 C 379.820 276.000,380.000 275.730,380.000 275.400 C 380.000 275.070,380.180 274.800,380.400 274.800 C 380.620 274.800,380.800 274.159,380.800 273.376 C 380.800 272.529,380.962 272.053,381.200 272.200 C 381.420 272.336,381.600 272.087,381.600 271.647 C 381.600 271.207,381.780 270.736,382.000 270.600 C 382.220 270.464,382.400 269.823,382.400 269.176 C 382.400 268.529,382.580 268.000,382.800 268.000 C 383.020 268.000,383.200 267.550,383.200 267.000 C 383.200 266.450,383.380 266.000,383.600 266.000 C 383.820 266.000,384.000 265.550,384.000 265.000 C 384.000 264.450,384.191 264.000,384.424 264.000 C 384.657 264.000,384.756 263.852,384.644 263.671 C 384.532 263.491,384.702 262.840,385.020 262.226 C 385.339 261.611,385.600 260.780,385.600 260.378 C 385.600 259.976,385.780 259.536,386.000 259.400 C 386.220 259.264,386.400 258.749,386.400 258.256 C 386.400 257.763,386.625 257.118,386.900 256.821 C 387.302 256.388,387.296 256.341,386.870 256.583 C 386.460 256.816,386.431 256.717,386.741 256.142 C 387.356 255.003,387.710 253.917,387.897 252.601 C 387.991 251.941,388.215 251.221,388.396 251.001 C 388.578 250.780,388.787 249.970,388.863 249.200 C 388.938 248.430,389.117 247.710,389.261 247.600 C 389.405 247.490,389.578 246.680,389.646 245.800 C 389.715 244.920,389.890 244.110,390.035 244.000 C 390.367 243.748,390.919 240.285,390.943 238.300 C 390.953 237.475,391.105 236.800,391.281 236.800 C 391.456 236.800,391.600 235.720,391.600 234.400 C 391.600 233.067,391.778 232.000,392.000 232.000 C 392.220 232.000,392.400 231.010,392.400 229.800 C 392.400 228.590,392.580 227.600,392.800 227.600 C 393.037 227.600,393.200 226.125,393.200 223.976 C 393.200 221.663,393.345 220.442,393.600 220.600 C 393.859 220.760,394.000 219.012,394.000 215.647 C 394.000 212.612,394.167 210.344,394.400 210.200 C 394.649 210.046,394.800 206.204,394.800 200.000 C 394.800 193.796,394.649 189.954,394.400 189.800 C 394.167 189.656,394.000 187.396,394.000 184.376 C 394.000 181.192,393.846 179.200,393.600 179.200 C 393.364 179.200,393.200 177.792,393.200 175.776 C 393.200 173.596,393.055 172.443,392.800 172.600 C 392.547 172.757,392.400 171.730,392.400 169.800 C 392.400 167.870,392.253 166.843,392.000 167.000 C 391.750 167.154,391.600 166.337,391.600 164.824 C 391.600 163.491,391.465 162.400,391.300 162.400 C 391.135 162.400,390.967 161.549,390.927 160.509 C 390.887 159.469,390.695 158.565,390.501 158.500 C 390.306 158.435,390.196 157.762,390.256 157.004 C 390.315 156.246,390.192 155.519,389.982 155.389 C 389.772 155.259,389.600 154.443,389.600 153.576 C 389.600 152.344,389.447 151.999,388.900 151.994 C 388.447 151.990,388.363 151.884,388.663 151.693 C 389.008 151.474,388.984 150.994,388.569 149.799 C 388.263 148.920,388.009 147.795,388.006 147.300 C 388.003 146.805,387.857 146.400,387.682 146.400 C 387.507 146.400,387.319 145.725,387.264 144.900 C 387.210 144.075,386.993 143.340,386.782 143.267 C 386.572 143.193,386.397 142.473,386.394 141.667 C 386.389 140.572,386.289 140.352,386.000 140.800 C 385.656 141.332,385.347 139.604,385.553 138.300 C 385.579 138.135,385.420 138.000,385.200 138.000 C 384.980 138.000,384.800 137.460,384.800 136.800 C 384.800 136.140,384.620 135.600,384.400 135.600 C 384.180 135.600,384.000 135.161,384.000 134.624 C 384.000 134.087,383.820 133.536,383.600 133.400 C 383.380 133.264,383.200 132.803,383.200 132.376 C 383.200 131.949,383.020 131.600,382.800 131.600 C 382.580 131.600,382.400 131.049,382.400 130.376 C 382.400 129.663,382.233 129.256,382.000 129.400 C 381.767 129.544,381.600 129.137,381.600 128.424 C 381.600 127.751,381.420 127.200,381.200 127.200 C 380.980 127.200,380.797 126.615,380.794 125.900 C 380.789 124.914,380.694 124.745,380.400 125.200 C 380.088 125.683,380.011 125.619,380.006 124.876 C 380.003 124.364,379.822 124.063,379.600 124.200 C 379.362 124.347,379.200 123.871,379.200 123.024 C 379.200 122.241,379.020 121.600,378.800 121.600 C 378.580 121.600,378.400 121.240,378.400 120.800 C 378.400 120.360,378.258 120.000,378.085 120.000 C 377.912 120.000,377.742 119.620,377.707 119.155 C 377.672 118.691,377.318 117.952,376.921 117.513 C 376.525 117.075,376.222 116.600,376.249 116.458 C 376.351 115.921,375.826 114.974,375.041 114.277 C 374.349 113.664,374.315 113.499,374.813 113.184 C 375.211 112.932,375.239 112.810,374.900 112.806 C 374.625 112.803,374.400 112.530,374.400 112.200 C 374.400 111.870,374.259 111.600,374.086 111.600 C 373.914 111.600,373.438 111.033,373.029 110.341 C 372.620 109.648,372.509 109.220,372.782 109.389 C 373.171 109.629,373.181 109.511,372.826 108.848 C 372.576 108.382,372.217 108.000,372.029 108.000 C 371.840 108.000,371.578 107.721,371.447 107.379 C 371.312 107.027,371.378 106.863,371.600 107.000 C 371.820 107.136,371.889 106.976,371.757 106.633 C 371.629 106.299,371.316 106.065,371.062 106.113 C 370.808 106.161,370.625 105.887,370.655 105.504 C 370.685 105.122,370.559 104.902,370.374 105.016 C 370.190 105.130,369.820 104.491,369.552 103.597 C 369.223 102.498,368.959 102.138,368.739 102.486 C 368.514 102.840,368.410 102.719,368.406 102.100 C 368.403 101.605,368.265 101.199,368.100 101.197 C 367.749 101.193,366.800 99.263,366.800 98.554 C 366.800 98.286,366.658 98.007,366.484 97.933 C 365.940 97.704,363.600 93.991,363.600 93.356 C 363.600 93.024,363.420 92.864,363.200 93.000 C 362.980 93.136,362.800 92.956,362.800 92.600 C 362.800 92.244,362.620 92.064,362.400 92.200 C 362.170 92.342,361.997 91.970,361.994 91.324 C 361.989 90.451,361.901 90.334,361.600 90.800 C 361.221 91.387,360.997 90.958,361.145 89.924 C 361.166 89.773,360.827 89.536,360.392 89.397 C 359.568 89.136,359.290 88.400,360.016 88.400 C 360.256 88.400,360.213 88.164,359.916 87.842 C 359.632 87.535,359.265 87.366,359.100 87.466 C 358.935 87.565,358.800 87.367,358.800 87.024 C 358.800 86.681,358.620 86.400,358.400 86.400 C 358.180 86.400,358.000 86.130,358.000 85.800 C 358.000 85.470,357.640 84.840,357.200 84.400 C 356.760 83.960,356.397 83.285,356.394 82.900 C 356.389 82.302,356.331 82.287,356.000 82.800 C 355.646 83.348,355.566 83.224,355.609 82.192 C 355.613 82.077,355.163 81.494,354.609 80.896 C 354.054 80.298,353.600 79.571,353.600 79.280 C 353.600 78.990,353.420 78.864,353.200 79.000 C 352.980 79.136,352.800 79.070,352.800 78.854 C 352.800 78.638,352.035 77.699,351.100 76.766 C 350.165 75.833,349.670 75.224,350.000 75.412 C 350.516 75.706,350.524 75.659,350.055 75.081 C 349.755 74.711,349.350 74.507,349.155 74.628 C 348.960 74.749,348.800 74.477,348.800 74.024 C 348.800 73.544,348.539 73.200,348.176 73.200 C 347.833 73.200,347.644 73.053,347.755 72.873 C 347.866 72.693,347.607 72.293,347.179 71.985 C 346.750 71.676,346.400 71.204,346.400 70.935 C 346.400 70.667,346.192 70.319,345.938 70.162 C 345.652 69.985,345.585 70.052,345.762 70.338 C 345.919 70.592,345.937 70.800,345.803 70.800 C 345.668 70.800,345.364 70.243,345.127 69.561 C 344.810 68.653,344.604 68.466,344.354 68.861 C 344.070 69.309,344.011 69.307,344.006 68.848 C 343.999 68.163,341.351 65.183,341.032 65.501 C 340.904 65.629,340.797 65.388,340.794 64.967 C 340.789 64.394,340.702 64.335,340.450 64.734 C 340.114 65.264,339.375 64.265,339.536 63.500 C 339.571 63.335,339.373 63.200,339.094 63.200 C 338.816 63.200,337.723 62.255,336.666 61.100 C 332.863 56.948,331.873 56.000,331.341 56.000 C 331.043 56.000,330.800 55.640,330.800 55.200 C 330.800 54.757,330.533 54.400,330.203 54.400 C 329.874 54.400,328.508 53.320,327.168 52.000 C 325.827 50.680,324.480 49.600,324.174 49.600 C 323.869 49.600,323.325 49.152,322.965 48.603 C 322.606 48.055,322.152 47.706,321.956 47.827 C 321.760 47.948,321.600 47.767,321.600 47.424 C 321.600 47.081,321.420 46.800,321.200 46.800 C 320.980 46.800,320.713 46.797,320.608 46.793 C 320.502 46.789,319.737 46.082,318.908 45.222 C 318.078 44.363,317.143 43.601,316.828 43.530 C 316.513 43.458,315.721 42.905,315.068 42.300 C 314.416 41.695,313.638 41.200,313.341 41.200 C 313.043 41.200,312.800 41.050,312.800 40.868 C 312.800 40.685,312.305 40.281,311.700 39.970 C 311.095 39.660,310.309 39.089,309.953 38.703 C 309.597 38.316,309.012 38.000,308.653 38.000 C 308.294 38.000,308.000 37.820,308.000 37.600 C 308.000 37.380,307.731 37.200,307.403 37.200 C 307.075 37.200,306.340 36.795,305.771 36.300 C 305.202 35.805,304.657 35.449,304.560 35.508 C 304.464 35.568,303.994 35.253,303.517 34.808 C 303.040 34.364,302.413 34.000,302.125 34.000 C 301.836 34.000,301.600 33.854,301.600 33.675 C 301.600 33.496,300.977 33.105,300.217 32.807 C 299.456 32.508,298.741 32.024,298.629 31.732 C 298.517 31.439,298.232 31.200,297.996 31.200 C 297.520 31.200,295.166 29.626,294.706 29.000 C 294.533 28.764,294.404 28.846,294.393 29.200 C 294.379 29.634,294.166 29.551,293.623 28.900 C 293.210 28.405,292.496 28.000,292.036 28.000 C 291.576 28.000,290.840 27.640,290.400 27.200 C 289.960 26.760,289.190 26.400,288.688 26.400 C 288.187 26.400,287.517 26.040,287.200 25.600 C 286.883 25.160,286.393 24.800,286.112 24.800 C 285.830 24.800,285.597 24.575,285.594 24.300 C 285.590 23.968,285.460 24.001,285.205 24.400 C 284.880 24.909,284.727 24.864,284.189 24.100 C 283.840 23.605,283.295 23.200,282.977 23.200 C 282.660 23.200,282.400 23.020,282.400 22.800 C 282.400 22.580,281.942 22.400,281.383 22.400 C 280.824 22.400,279.975 22.035,279.497 21.590 C 279.018 21.144,278.351 20.805,278.013 20.836 C 276.693 20.957,275.964 20.782,276.200 20.400 C 276.341 20.172,275.996 20.000,275.400 20.000 C 274.804 20.000,274.459 19.828,274.600 19.600 C 274.747 19.362,274.271 19.200,273.424 19.200 C 272.641 19.200,272.000 19.020,272.000 18.800 C 272.000 18.580,271.550 18.400,271.000 18.400 C 270.450 18.400,270.000 18.220,270.000 18.000 C 270.000 17.780,269.640 17.600,269.200 17.600 C 268.760 17.600,268.400 17.454,268.400 17.276 C 268.400 17.026,266.003 16.219,264.000 15.794 C 263.890 15.770,263.092 15.443,262.226 15.065 C 261.360 14.688,260.235 14.344,259.726 14.302 C 259.217 14.260,258.800 14.085,258.800 13.913 C 258.800 13.741,258.350 13.600,257.800 13.600 C 257.250 13.600,256.800 13.420,256.800 13.200 C 256.800 12.980,256.170 12.800,255.400 12.800 C 254.630 12.800,254.000 12.644,254.000 12.453 C 254.000 12.061,251.626 11.588,247.876 11.231 C 247.698 11.214,247.677 10.999,247.829 10.753 C 248.021 10.443,247.608 10.353,246.486 10.460 C 245.542 10.550,244.964 10.458,245.099 10.239 C 245.229 10.030,245.038 9.977,244.666 10.119 C 244.300 10.260,244.000 10.204,244.000 9.995 C 244.000 9.787,243.289 9.684,242.420 9.768 C 241.527 9.854,240.779 9.736,240.699 9.496 C 240.621 9.262,239.712 9.084,238.678 9.099 C 237.645 9.115,236.800 8.981,236.800 8.802 C 236.800 8.478,234.840 8.171,230.100 7.752 C 228.725 7.631,227.600 7.367,227.600 7.166 C 227.600 6.965,226.261 6.800,224.624 6.800 C 222.987 6.800,221.536 6.620,221.400 6.400 C 221.264 6.180,220.938 6.003,220.676 6.006 C 220.390 6.010,220.439 6.167,220.800 6.400 C 221.161 6.633,221.210 6.790,220.924 6.794 C 220.662 6.797,220.336 6.620,220.200 6.400 C 220.064 6.179,218.270 6.000,216.200 6.000 C 214.130 6.000,212.336 5.821,212.200 5.600 C 211.862 5.053,188.000 5.053,188.000 5.600 M211.056 18.409 C 221.595 19.012,233.847 20.844,242.807 23.158 C 258.777 27.282,267.017 30.306,281.316 37.291 C 317.586 55.007,349.797 88.519,366.005 125.400 C 367.249 128.229,368.033 130.073,368.387 131.000 C 368.555 131.440,368.880 132.250,369.108 132.800 C 382.266 164.474,385.495 203.991,377.786 239.000 C 375.648 248.708,371.366 262.545,369.153 266.895 C 368.959 267.277,368.800 267.766,368.800 267.983 C 368.800 268.199,368.370 269.327,367.845 270.488 C 367.319 271.650,366.494 273.500,366.011 274.600 C 348.949 313.429,314.372 348.312,276.200 365.206 C 275.100 365.693,273.480 366.414,272.600 366.809 C 228.495 386.611,171.847 386.650,127.600 366.910 C 93.592 351.738,67.497 329.571,46.891 298.349 C 43.199 292.755,40.113 287.301,36.849 280.600 C 13.688 233.058,11.845 180.124,31.638 130.900 C 44.319 99.363,68.820 69.131,97.600 49.512 C 108.194 42.289,121.345 35.188,130.400 31.799 C 131.390 31.429,132.560 30.979,133.000 30.800 C 156.378 21.271,184.119 16.868,211.056 18.409 M108.214 87.241 C 107.436 87.924,106.800 88.626,106.800 88.801 C 106.800 88.977,107.412 88.508,108.160 87.760 L 109.520 86.400 200.000 86.400 L 290.480 86.400 291.840 87.760 C 293.168 89.088,293.660 89.217,292.687 87.982 C 291.005 85.846,298.198 86.000,199.925 86.000 L 109.628 86.000 108.214 87.241 M293.400 119.776 C 293.400 136.357,293.532 149.716,293.694 149.462 C 294.063 148.881,294.042 91.247,293.672 90.315 C 293.522 89.938,293.400 103.196,293.400 119.776 M153.752 101.964 C 151.673 103.232,151.592 103.956,151.689 120.360 L 151.777 135.400 151.989 119.800 C 152.251 100.424,151.832 101.404,159.736 101.663 C 162.041 101.738,163.718 101.668,163.464 101.506 C 162.394 100.828,155.046 101.175,153.752 101.964 M235.910 101.824 C 235.311 102.149,234.624 102.817,234.383 103.308 L 233.946 104.200 234.673 103.347 C 236.368 101.357,243.623 100.764,246.300 102.396 C 247.015 102.832,247.600 103.098,247.600 102.988 C 247.600 101.367,238.435 100.453,235.910 101.824 M165.166 103.061 L 165.998 104.321 166.100 209.461 L 166.202 314.600 166.299 209.400 L 166.396 104.200 165.365 103.000 L 164.334 101.800 165.166 103.061 M247.904 115.912 C 247.961 122.670,248.059 129.730,248.122 131.600 C 248.184 133.470,248.260 128.250,248.290 120.000 C 248.319 111.750,248.221 104.690,248.072 104.312 C 247.922 103.934,247.847 109.154,247.904 115.912 M233.797 209.600 C 233.797 267.570,233.843 291.285,233.900 262.300 C 233.957 233.315,233.957 185.885,233.900 156.900 C 233.843 127.915,233.797 151.630,233.797 209.600 M248.444 135.600 C 248.423 136.291,249.052 137.146,250.200 137.985 C 250.723 138.367,250.637 138.160,249.950 137.385 C 249.372 136.733,248.802 135.930,248.681 135.600 C 248.487 135.067,248.461 135.067,248.444 135.600 M150.207 137.124 C 149.338 138.143,149.240 138.382,149.848 138.002 C 150.653 137.500,151.789 136.026,151.528 135.823 C 151.457 135.769,150.863 136.354,150.207 137.124 M138.911 139.325 C 137.108 140.549,136.747 141.718,136.901 145.823 L 137.035 149.400 137.118 145.589 C 137.243 139.779,137.973 139.114,144.600 138.774 L 149.000 138.548 144.600 138.499 C 140.686 138.455,140.058 138.546,138.911 139.325 M252.400 138.660 C 255.682 138.953,260.312 138.977,260.140 138.700 C 260.037 138.535,257.938 138.430,255.476 138.467 C 253.014 138.504,251.630 138.591,252.400 138.660 M261.337 139.784 C 261.743 140.091,262.320 141.031,262.620 141.871 C 263.035 143.036,263.169 143.177,263.182 142.462 C 263.203 141.387,261.778 139.194,261.073 139.213 C 260.813 139.220,260.932 139.477,261.337 139.784 M106.801 150.611 C 106.799 151.363,108.033 152.797,109.204 153.402 C 110.450 154.046,132.490 154.311,133.463 153.694 C 133.718 153.532,128.858 153.456,122.663 153.526 C 110.041 153.666,108.815 153.500,107.582 151.478 C 107.154 150.775,106.802 150.385,106.801 150.611 M292.256 151.771 C 291.146 153.465,289.478 153.661,277.337 153.526 C 271.142 153.456,266.282 153.532,266.537 153.694 C 267.462 154.281,289.543 154.050,290.721 153.441 C 291.962 152.799,293.429 151.296,293.118 150.985 C 293.003 150.870,292.615 151.223,292.256 151.771 M166.401 315.411 C 166.398 316.353,168.527 318.759,169.389 318.787 C 169.603 318.794,169.363 318.509,168.855 318.153 C 168.347 317.798,167.588 316.943,167.167 316.253 C 166.747 315.564,166.402 315.185,166.401 315.411 M231.694 317.612 C 230.975 318.265,230.525 318.794,230.694 318.787 C 231.095 318.771,232.060 317.978,232.749 317.100 C 233.548 316.081,233.180 316.259,231.694 317.612 " stroke="none" fill="#747474" fill-rule="evenodd"></path><path id="path2" d="M191.000 18.272 C 171.332 19.259,150.024 23.861,133.000 30.800 C 132.560 30.979,131.390 31.429,130.400 31.799 C 89.982 46.925,49.783 86.824,32.371 129.100 C 13.576 174.731,13.298 224.557,31.589 269.000 C 34.710 276.582,38.195 283.665,42.909 292.000 C 60.677 323.422,91.773 350.926,127.600 366.910 C 171.847 386.650,228.495 386.611,272.600 366.809 C 273.480 366.414,275.100 365.693,276.200 365.206 C 314.372 348.312,348.949 313.429,366.011 274.600 C 366.494 273.500,367.319 271.650,367.845 270.488 C 368.370 269.327,368.800 268.199,368.800 267.983 C 368.800 267.766,368.959 267.277,369.153 266.895 C 371.366 262.545,375.648 248.708,377.786 239.000 C 385.495 203.991,382.266 164.474,369.108 132.800 C 368.880 132.250,368.555 131.440,368.387 131.000 C 365.202 122.666,359.004 110.832,352.882 101.400 C 335.178 74.123,309.345 50.982,281.316 37.291 C 267.017 30.306,258.777 27.282,242.807 23.158 C 227.832 19.291,207.988 17.419,191.000 18.272 M104.301 29.343 C 103.477 29.815,102.802 30.329,102.801 30.487 C 102.800 30.825,105.502 29.282,105.825 28.760 C 106.102 28.312,106.115 28.307,104.301 29.343 M296.044 30.119 C 297.665 31.218,298.945 31.758,298.597 31.195 C 298.463 30.978,298.093 30.800,297.776 30.800 C 297.459 30.800,297.200 30.649,297.200 30.464 C 297.200 30.280,296.742 29.920,296.181 29.664 C 294.606 28.947,294.557 29.111,296.044 30.119 M291.232 86.682 C 293.880 88.247,293.787 87.127,293.919 119.200 C 294.077 157.757,295.760 154.001,278.320 153.999 C 263.546 153.997,263.620 154.033,263.167 146.400 C 262.762 139.566,261.999 138.800,255.600 138.800 C 247.929 138.800,248.253 139.617,247.974 119.600 C 247.849 110.690,247.714 103.352,247.674 103.294 C 245.984 100.869,236.685 100.907,234.709 103.347 C 234.058 104.150,234.017 110.324,234.009 209.313 C 233.999 322.700,234.126 315.933,231.969 317.943 L 231.049 318.800 199.979 318.800 L 168.909 318.800 167.860 317.751 C 165.951 315.842,166.005 318.956,166.000 209.000 L 165.996 104.200 165.037 103.000 C 164.094 101.821,164.002 101.798,159.811 101.663 C 151.701 101.402,152.000 100.699,152.000 120.027 C 152.000 139.094,152.116 138.800,144.618 138.800 C 138.246 138.800,137.489 139.511,137.180 145.786 C 136.937 150.706,136.309 152.206,133.988 153.406 C 131.975 154.447,110.637 154.264,108.876 153.190 C 106.294 151.616,106.374 152.754,106.493 119.164 L 106.600 88.738 108.094 87.369 L 109.588 86.000 199.832 86.000 C 284.176 86.000,290.152 86.045,291.232 86.682 M29.200 294.915 C 29.200 295.485,30.155 297.200,30.473 297.200 C 30.663 297.200,30.509 296.705,30.130 296.100 C 29.232 294.664,29.200 294.623,29.200 294.915 M329.829 345.429 C 329.405 345.738,329.172 346.105,329.310 346.243 C 329.449 346.382,329.862 346.195,330.229 345.829 C 331.091 344.966,330.825 344.700,329.829 345.429 " stroke="none" fill="#444464" fill-rule="evenodd"></path><path id="path3" d="M61.785 62.100 L 59.800 64.200 61.900 62.215 C 63.851 60.371,64.183 60.000,63.885 60.000 C 63.822 60.000,62.877 60.945,61.785 62.100 M337.400 61.600 C 338.259 62.480,339.052 63.200,339.162 63.200 C 339.272 63.200,338.659 62.480,337.800 61.600 C 336.941 60.720,336.148 60.000,336.038 60.000 C 335.928 60.000,336.541 60.720,337.400 61.600 M109.400 87.080 C 108.142 87.759,107.233 88.724,107.215 89.400 C 107.209 89.620,107.608 89.322,108.102 88.738 C 108.596 88.153,109.393 87.478,109.874 87.238 C 111.396 86.475,288.915 86.632,290.396 87.398 C 292.940 88.713,292.800 86.839,292.800 119.670 C 292.800 140.844,292.670 149.849,292.353 150.544 C 291.356 152.732,290.473 152.864,277.711 152.726 C 263.293 152.571,264.344 153.080,263.988 146.077 C 263.626 138.945,262.683 138.007,255.869 138.003 C 251.617 138.000,251.517 137.979,250.369 136.831 L 249.200 135.662 249.200 120.418 C 249.200 103.544,249.139 103.083,246.724 101.610 C 245.996 101.166,245.220 100.810,245.000 100.819 C 244.780 100.828,245.240 101.174,246.022 101.587 C 248.577 102.938,248.579 102.952,248.800 120.200 C 249.047 139.476,248.613 138.400,256.152 138.400 C 260.235 138.400,260.278 138.410,261.800 139.725 L 263.333 141.051 263.583 145.973 C 263.976 153.711,264.037 153.740,279.808 153.532 C 294.855 153.333,293.197 157.502,293.199 119.862 C 293.200 86.614,293.338 88.326,290.557 87.006 C 288.539 86.049,111.178 86.120,109.400 87.080 M106.990 119.800 C 106.990 136.300,107.039 143.108,107.100 134.930 C 107.160 126.751,107.160 113.251,107.100 104.930 C 107.039 96.608,106.990 103.300,106.990 119.800 M153.276 101.610 C 150.861 103.083,150.800 103.544,150.800 120.418 L 150.800 135.662 149.631 136.831 C 148.487 137.975,148.371 138.000,144.254 138.000 C 139.876 138.000,137.632 138.698,137.038 140.246 C 136.909 140.581,137.474 140.303,138.293 139.627 C 139.740 138.435,139.898 138.400,143.872 138.400 C 151.707 138.400,151.351 139.265,151.600 119.600 C 151.819 102.306,151.748 102.806,154.133 101.626 C 155.050 101.172,155.530 100.801,155.200 100.802 C 154.870 100.802,154.004 101.166,153.276 101.610 M163.993 101.652 C 164.759 102.119,165.614 102.793,165.894 103.151 C 166.356 103.742,166.380 103.738,166.161 103.108 C 165.926 102.432,163.654 100.799,162.953 100.801 C 162.759 100.802,163.227 101.185,163.993 101.652 M235.400 101.600 C 233.861 102.619,234.201 102.619,236.200 101.600 C 237.063 101.160,237.506 100.801,237.185 100.803 C 236.863 100.804,236.060 101.163,235.400 101.600 M166.498 208.892 C 166.408 305.082,166.455 314.121,167.050 315.607 C 168.227 318.551,166.434 318.400,200.194 318.400 C 232.436 318.400,231.841 318.434,232.568 316.539 C 232.707 316.176,232.301 316.349,231.571 316.963 L 230.339 318.000 200.058 318.000 C 167.233 318.000,168.773 318.100,167.503 315.879 C 167.104 315.182,166.958 293.196,166.798 209.400 L 166.596 103.800 166.498 208.892 M233.299 209.067 C 233.245 266.964,233.096 314.664,232.970 315.067 C 232.764 315.722,232.785 315.729,233.171 315.134 C 233.476 314.662,233.572 283.882,233.500 209.134 L 233.398 103.800 233.299 209.067 M136.357 141.233 C 136.333 141.325,136.194 143.514,136.048 146.098 C 135.652 153.089,136.749 152.573,121.966 152.717 L 109.954 152.834 108.577 151.457 C 107.043 149.923,106.696 150.172,108.100 151.799 C 109.434 153.345,111.236 153.580,121.800 153.588 C 135.804 153.599,135.985 153.506,136.440 146.093 C 136.599 143.512,136.655 141.325,136.564 141.233 C 136.474 141.142,136.381 141.142,136.357 141.233 M60.800 336.925 C 60.800 336.994,61.385 337.579,62.100 338.225 L 63.400 339.400 62.225 338.100 C 61.130 336.888,60.800 336.616,60.800 336.925 " stroke="none" fill="#9494a4" fill-rule="evenodd"></path><path id="path4" d="M106.590 119.800 C 106.590 135.860,106.639 142.372,106.700 134.271 C 106.760 126.169,106.760 113.029,106.700 105.071 C 106.639 97.112,106.590 103.740,106.590 119.800 M293.390 120.000 C 293.390 136.170,293.439 142.785,293.500 134.700 C 293.560 126.615,293.560 113.385,293.500 105.300 C 293.439 97.215,293.390 103.830,293.390 120.000 M157.300 101.094 C 158.345 101.176,160.055 101.176,161.100 101.094 C 162.145 101.012,161.290 100.944,159.200 100.944 C 157.110 100.944,156.255 101.012,157.300 101.094 M239.300 101.094 C 240.345 101.176,242.055 101.176,243.100 101.094 C 244.145 101.012,243.290 100.944,241.200 100.944 C 239.110 100.944,238.255 101.012,239.300 101.094 M248.581 120.400 C 248.581 128.650,248.634 132.025,248.699 127.900 C 248.764 123.775,248.764 117.025,248.699 112.900 C 248.634 108.775,248.581 112.150,248.581 120.400 M263.344 146.000 C 263.344 148.090,263.412 148.945,263.494 147.900 C 263.576 146.855,263.576 145.145,263.494 144.100 C 263.412 143.055,263.344 143.910,263.344 146.000 M136.540 146.400 C 136.540 148.270,136.609 149.035,136.693 148.100 C 136.777 147.165,136.777 145.635,136.693 144.700 C 136.609 143.765,136.540 144.530,136.540 146.400 M134.678 152.213 C 134.060 152.756,133.714 153.200,133.908 153.200 C 134.102 153.200,134.683 152.750,135.200 152.200 C 136.395 150.928,136.131 150.934,134.678 152.213 M264.888 152.213 C 265.486 152.843,266.047 153.277,266.135 153.179 C 266.223 153.080,265.733 152.565,265.047 152.034 L 263.800 151.069 264.888 152.213 M394.000 188.953 C 394.000 189.283,394.180 189.664,394.400 189.800 C 394.620 189.936,394.800 189.777,394.800 189.447 C 394.800 189.117,394.620 188.736,394.400 188.600 C 394.180 188.464,394.000 188.623,394.000 188.953 M168.976 318.170 C 169.670 318.733,173.000 318.790,200.176 318.705 L 230.600 318.610 200.000 318.405 C 183.170 318.292,169.130 318.052,168.800 317.870 C 168.470 317.689,168.549 317.824,168.976 318.170 M337.883 337.458 C 336.609 338.691,335.631 339.764,335.710 339.843 C 335.855 339.988,338.360 337.651,339.762 336.063 C 341.128 334.516,340.250 335.168,337.883 337.458 M62.375 338.095 C 63.351 339.134,64.228 339.906,64.323 339.811 C 64.502 339.631,64.267 339.390,61.979 337.404 C 60.975 336.533,61.083 336.722,62.375 338.095 " stroke="none" fill="#848c9c" fill-rule="evenodd"></path></g></svg>