<svg id="svg" version="1.1" xmlns="http://www.w3.org/2000/svg" xmlns:xlink="http://www.w3.org/1999/xlink" width="400" height="400" viewBox="0, 0, 400,400"><g id="svgg"><path id="path0" d="M108.560 88.160 L 107.200 89.520 107.201 119.660 C 107.203 148.684,107.231 149.847,107.972 151.060 C 109.081 152.881,111.184 153.202,121.920 153.190 C 135.693 153.176,135.650 153.198,136.013 146.043 C 136.374 138.941,137.344 138.000,144.307 138.000 C 151.310 138.000,151.195 138.326,151.198 118.589 C 151.200 102.368,151.159 102.662,153.604 101.398 C 155.225 100.559,162.787 100.566,164.413 101.407 C 166.995 102.742,166.800 93.928,166.800 209.193 C 166.800 322.394,166.676 315.827,168.847 317.348 C 170.271 318.345,229.729 318.345,231.153 317.348 C 233.324 315.827,233.200 322.394,233.200 209.193 C 233.200 93.928,233.005 102.742,235.587 101.407 C 237.475 100.431,245.006 100.562,246.710 101.602 C 248.732 102.834,248.799 103.372,248.817 118.526 C 248.842 138.302,248.736 138.000,255.662 138.000 C 262.571 138.000,263.622 139.047,263.990 146.298 C 264.338 153.153,264.385 153.176,278.080 153.190 C 288.816 153.202,290.919 152.881,292.028 151.060 C 292.769 149.847,292.797 148.684,292.799 119.660 L 292.800 89.520 291.440 88.160 L 290.080 86.800 200.000 86.800 L 109.920 86.800 108.560 88.160 " stroke="none" fill="#dbdbdb" fill-rule="evenodd"></path><path id="path1" d="M187.600 5.600 C 187.600 5.841,185.941 6.000,183.424 6.000 C 181.071 6.000,179.139 6.175,179.000 6.400 C 178.864 6.620,177.334 6.800,175.600 6.800 C 173.866 6.800,172.336 6.980,172.200 7.200 C 172.064 7.420,170.894 7.600,169.600 7.600 C 168.306 7.600,167.136 7.780,167.000 8.000 C 166.864 8.220,165.874 8.400,164.800 8.400 C 163.726 8.400,162.736 8.580,162.600 8.800 C 162.464 9.020,161.553 9.200,160.576 9.200 C 159.599 9.200,158.800 9.380,158.800 9.600 C 158.800 9.820,158.001 10.000,157.024 10.000 C 156.047 10.000,155.148 10.161,155.026 10.358 C 154.818 10.695,154.258 10.817,150.100 11.432 C 149.165 11.571,148.400 11.845,148.400 12.042 C 148.400 12.239,147.860 12.400,147.200 12.400 C 146.540 12.400,146.000 12.580,146.000 12.800 C 146.000 13.020,145.280 13.200,144.400 13.200 C 143.520 13.200,142.800 13.380,142.800 13.600 C 142.800 13.820,142.361 14.000,141.824 14.000 C 141.287 14.000,140.736 14.180,140.600 14.400 C 140.464 14.620,139.924 14.800,139.400 14.800 C 138.876 14.800,138.336 14.980,138.200 15.200 C 138.064 15.420,137.423 15.600,136.776 15.600 C 136.129 15.600,135.600 15.780,135.600 16.000 C 135.600 16.220,135.060 16.400,134.400 16.400 C 133.740 16.400,133.200 16.580,133.200 16.800 C 133.200 17.020,132.840 17.200,132.400 17.200 C 131.960 17.200,131.600 17.380,131.600 17.600 C 131.600 17.820,131.060 18.000,130.400 18.000 C 129.740 18.000,129.200 18.180,129.200 18.400 C 129.200 18.620,128.761 18.800,128.224 18.800 C 127.687 18.800,127.136 18.980,127.000 19.200 C 126.864 19.420,126.403 19.600,125.976 19.600 C 125.549 19.600,125.200 19.780,125.200 20.000 C 125.200 20.220,124.858 20.400,124.441 20.400 C 124.023 20.400,122.655 20.940,121.400 21.600 C 120.145 22.260,118.867 22.800,118.559 22.800 C 118.252 22.800,118.000 22.980,118.000 23.200 C 118.000 23.420,117.671 23.600,117.268 23.600 C 116.238 23.600,112.755 25.421,113.108 25.775 C 113.269 25.935,113.220 26.030,113.000 25.986 C 112.070 25.798,111.299 26.049,110.492 26.800 C 110.020 27.240,109.482 27.600,109.296 27.600 C 108.703 27.600,106.806 28.589,106.803 28.900 C 106.801 29.065,106.440 29.200,106.000 29.200 C 105.560 29.200,105.200 29.380,105.200 29.600 C 105.200 29.820,104.840 30.000,104.400 30.000 C 103.960 30.000,103.600 30.180,103.600 30.400 C 103.600 30.620,103.364 30.800,103.075 30.800 C 102.787 30.800,102.164 31.160,101.692 31.600 C 101.220 32.040,100.638 32.400,100.400 32.400 C 100.162 32.400,99.580 32.760,99.108 33.200 C 98.636 33.640,98.013 34.000,97.725 34.000 C 97.436 34.000,97.200 34.180,97.200 34.400 C 97.200 34.620,97.010 34.800,96.778 34.800 C 96.546 34.800,95.296 35.520,94.000 36.400 C 92.704 37.280,91.454 38.000,91.222 38.000 C 90.990 38.000,90.800 38.180,90.800 38.400 C 90.800 38.620,90.557 38.800,90.259 38.800 C 89.962 38.800,89.154 39.340,88.463 40.000 C 87.772 40.660,86.975 41.200,86.692 41.200 C 86.409 41.200,85.917 41.560,85.600 42.000 C 85.283 42.440,84.831 42.800,84.596 42.800 C 84.360 42.800,83.372 43.520,82.400 44.400 C 81.428 45.280,80.472 46.000,80.276 46.000 C 80.081 46.000,79.417 46.540,78.800 47.200 C 78.183 47.860,77.526 48.401,77.340 48.402 C 77.153 48.403,75.871 49.483,74.492 50.802 C 73.113 52.121,71.805 53.200,71.587 53.200 C 71.077 53.200,54.000 70.348,54.000 70.860 C 54.000 71.071,52.920 72.304,51.600 73.600 C 50.280 74.896,49.200 76.145,49.200 76.377 C 49.200 76.609,48.480 77.541,47.600 78.448 C 46.720 79.355,46.000 80.273,46.000 80.488 C 46.000 80.703,45.505 81.356,44.900 81.940 C 44.295 82.523,43.545 83.495,43.232 84.100 C 42.920 84.705,42.515 85.200,42.332 85.200 C 42.150 85.200,42.000 85.443,42.000 85.741 C 42.000 86.038,41.460 86.846,40.800 87.537 C 40.140 88.228,39.600 88.929,39.599 89.096 C 39.599 89.263,39.059 90.030,38.400 90.800 C 37.741 91.570,37.201 92.425,37.201 92.700 C 37.200 92.975,37.020 93.200,36.800 93.200 C 36.580 93.200,36.400 93.560,36.400 94.000 C 36.400 94.440,36.250 94.800,36.068 94.800 C 35.885 94.800,35.480 95.295,35.168 95.900 C 34.855 96.505,34.285 97.349,33.900 97.775 C 33.515 98.202,33.200 98.787,33.200 99.075 C 33.200 99.364,33.020 99.600,32.800 99.600 C 32.580 99.600,32.400 99.960,32.400 100.400 C 32.400 100.840,32.220 101.200,32.000 101.200 C 31.780 101.200,31.600 101.520,31.600 101.912 C 31.600 102.303,31.240 102.883,30.800 103.200 C 30.360 103.517,30.000 103.971,30.000 104.209 C 30.000 104.875,29.037 106.793,28.700 106.797 C 28.535 106.799,28.400 107.160,28.400 107.600 C 28.400 108.040,28.265 108.401,28.100 108.403 C 27.741 108.407,26.800 110.344,26.800 111.080 C 26.800 111.366,26.648 111.600,26.463 111.600 C 26.277 111.600,25.718 112.455,25.219 113.500 C 24.720 114.545,24.152 115.713,23.956 116.095 C 23.760 116.477,23.600 117.062,23.600 117.395 C 23.600 117.728,23.420 118.000,23.200 118.000 C 22.980 118.000,22.800 118.360,22.800 118.800 C 22.800 119.240,22.620 119.600,22.400 119.600 C 22.180 119.600,22.000 119.865,22.000 120.188 C 22.000 120.511,21.640 121.417,21.200 122.200 C 20.760 122.983,20.400 123.979,20.400 124.412 C 20.400 124.845,20.220 125.200,20.000 125.200 C 19.780 125.200,19.600 125.562,19.600 126.005 C 19.600 126.448,19.441 127.123,19.247 127.505 C 19.052 127.887,18.671 128.740,18.400 129.400 C 18.129 130.060,17.748 130.913,17.553 131.295 C 17.359 131.677,17.200 132.262,17.200 132.595 C 17.200 132.928,17.020 133.200,16.800 133.200 C 16.580 133.200,16.400 133.740,16.400 134.400 C 16.400 135.060,16.220 135.600,16.000 135.600 C 15.780 135.600,15.600 136.140,15.600 136.800 C 15.600 137.460,15.420 138.000,15.200 138.000 C 14.980 138.000,14.800 138.540,14.800 139.200 C 14.800 139.860,14.620 140.400,14.400 140.400 C 14.180 140.400,14.000 140.929,14.000 141.576 C 14.000 142.223,13.820 142.864,13.600 143.000 C 13.380 143.136,13.200 143.867,13.200 144.624 C 13.200 145.381,13.020 146.000,12.800 146.000 C 12.580 146.000,12.400 146.540,12.400 147.200 C 12.400 147.860,12.220 148.400,12.000 148.400 C 11.780 148.400,11.600 149.120,11.600 150.000 C 11.600 150.880,11.420 151.600,11.200 151.600 C 10.980 151.600,10.800 152.309,10.800 153.176 C 10.800 154.043,10.620 154.864,10.400 155.000 C 10.180 155.136,10.000 155.856,10.000 156.600 C 10.000 157.344,9.820 158.064,9.600 158.200 C 9.380 158.336,9.200 159.326,9.200 160.400 C 9.200 161.474,9.020 162.464,8.800 162.600 C 8.580 162.736,8.400 163.726,8.400 164.800 C 8.400 165.874,8.220 166.864,8.000 167.000 C 7.780 167.136,7.600 168.216,7.600 169.400 C 7.600 170.584,7.420 171.664,7.200 171.800 C 6.980 171.936,6.800 173.466,6.800 175.200 C 6.800 176.934,6.620 178.464,6.400 178.600 C 6.173 178.740,6.000 180.730,6.000 183.200 C 6.000 185.670,5.827 187.660,5.600 187.800 C 5.055 188.137,5.055 211.863,5.600 212.200 C 5.827 212.340,6.000 214.330,6.000 216.800 C 6.000 219.270,6.173 221.260,6.400 221.400 C 6.620 221.536,6.800 222.976,6.800 224.600 C 6.800 226.224,6.980 227.664,7.200 227.800 C 7.420 227.936,7.600 229.207,7.600 230.624 C 7.600 232.075,7.775 233.200,8.000 233.200 C 8.220 233.200,8.400 234.179,8.400 235.376 C 8.400 236.573,8.580 237.664,8.800 237.800 C 9.020 237.936,9.200 238.757,9.200 239.624 C 9.200 240.491,9.380 241.200,9.600 241.200 C 9.820 241.200,10.000 242.100,10.000 243.200 C 10.000 244.300,10.180 245.200,10.400 245.200 C 10.620 245.200,10.800 245.819,10.800 246.576 C 10.800 247.333,10.980 248.064,11.200 248.200 C 11.420 248.336,11.600 249.056,11.600 249.800 C 11.600 250.544,11.780 251.264,12.000 251.400 C 12.220 251.536,12.400 252.177,12.400 252.824 C 12.400 253.471,12.580 254.000,12.800 254.000 C 13.020 254.000,13.200 254.720,13.200 255.600 C 13.200 256.480,13.380 257.200,13.600 257.200 C 13.820 257.200,14.000 257.740,14.000 258.400 C 14.000 259.060,14.180 259.600,14.400 259.600 C 14.620 259.600,14.800 260.039,14.800 260.576 C 14.800 261.113,14.980 261.664,15.200 261.800 C 15.420 261.936,15.600 262.476,15.600 263.000 C 15.600 263.524,15.780 264.064,16.000 264.200 C 16.220 264.336,16.400 264.977,16.400 265.624 C 16.400 266.271,16.580 266.800,16.800 266.800 C 17.020 266.800,17.200 267.160,17.200 267.600 C 17.200 268.040,17.380 268.400,17.600 268.400 C 17.820 268.400,18.000 268.940,18.000 269.600 C 18.000 270.260,18.180 270.800,18.400 270.800 C 18.620 270.800,18.800 271.239,18.800 271.776 C 18.800 272.313,18.980 272.864,19.200 273.000 C 19.420 273.136,19.600 273.597,19.600 274.024 C 19.600 274.451,19.780 274.800,20.000 274.800 C 20.220 274.800,20.400 275.072,20.400 275.405 C 20.400 275.738,20.557 276.323,20.750 276.705 C 22.248 279.680,22.800 280.953,22.800 281.438 C 22.800 281.747,22.980 282.000,23.200 282.000 C 23.420 282.000,23.604 282.405,23.609 282.900 C 23.614 283.395,23.970 284.250,24.400 284.800 C 24.830 285.350,25.186 286.020,25.191 286.289 C 25.196 286.558,25.652 287.548,26.205 288.489 C 26.758 289.430,27.520 290.875,27.899 291.700 C 28.278 292.525,28.726 293.200,28.894 293.200 C 29.062 293.200,29.200 293.545,29.200 293.967 C 29.200 294.388,29.335 294.793,29.500 294.867 C 29.876 295.034,31.175 297.164,31.471 298.100 C 31.593 298.485,31.852 298.800,32.047 298.800 C 32.241 298.800,32.400 299.160,32.400 299.600 C 32.400 300.040,32.580 300.400,32.800 300.400 C 33.020 300.400,33.200 300.720,33.200 301.112 C 33.200 301.503,33.560 302.083,34.000 302.400 C 34.440 302.717,34.800 303.282,34.800 303.655 C 34.800 304.028,34.945 304.393,35.123 304.467 C 35.591 304.659,38.000 308.265,38.000 308.772 C 38.000 309.007,38.180 309.200,38.400 309.200 C 38.620 309.200,38.800 309.443,38.800 309.741 C 38.800 310.038,39.295 310.806,39.900 311.448 C 40.505 312.089,41.255 313.106,41.568 313.707 C 41.880 314.308,42.285 314.800,42.468 314.800 C 42.650 314.800,42.800 315.048,42.800 315.352 C 42.800 315.655,43.520 316.645,44.400 317.552 C 45.280 318.459,46.000 319.379,46.000 319.597 C 46.000 319.815,46.540 320.509,47.200 321.140 C 47.860 321.771,48.400 322.450,48.400 322.649 C 48.400 322.849,49.660 324.344,51.200 325.972 C 52.740 327.600,54.000 329.086,54.000 329.275 C 54.000 329.741,69.532 345.200,70.000 345.200 C 70.204 345.200,70.565 345.560,70.800 346.000 C 71.035 346.440,71.414 346.800,71.640 346.800 C 71.867 346.800,72.929 347.700,74.000 348.800 C 75.071 349.900,76.140 350.800,76.374 350.800 C 76.608 350.800,77.541 351.520,78.448 352.400 C 79.355 353.280,80.254 354.000,80.447 354.000 C 80.640 354.000,81.563 354.720,82.497 355.600 C 83.431 356.480,84.382 357.200,84.610 357.200 C 84.837 357.200,85.283 357.560,85.600 358.000 C 85.917 358.440,86.431 358.800,86.741 358.800 C 87.052 358.800,87.599 359.115,87.957 359.500 C 88.316 359.885,89.012 360.425,89.504 360.700 C 89.997 360.975,90.803 361.425,91.296 361.700 C 91.788 361.975,92.484 362.515,92.843 362.900 C 93.201 363.285,93.788 363.600,94.147 363.600 C 94.506 363.600,94.800 363.750,94.800 363.932 C 94.800 364.115,95.295 364.520,95.900 364.832 C 96.505 365.145,97.349 365.715,97.775 366.100 C 98.202 366.485,98.787 366.800,99.075 366.800 C 99.364 366.800,99.600 366.980,99.600 367.200 C 99.600 367.420,99.960 367.600,100.400 367.600 C 100.840 367.600,101.200 367.753,101.200 367.940 C 101.200 368.127,102.415 368.891,103.900 369.638 C 105.385 370.385,106.660 371.132,106.733 371.298 C 106.807 371.464,107.212 371.600,107.633 371.600 C 108.055 371.600,108.401 371.735,108.403 371.900 C 108.407 372.259,110.344 373.200,111.080 373.200 C 111.366 373.200,111.600 373.380,111.600 373.600 C 111.600 373.820,111.960 374.000,112.400 374.000 C 112.840 374.000,113.200 374.147,113.200 374.326 C 113.200 374.792,116.331 376.400,117.238 376.400 C 117.657 376.400,118.000 376.580,118.000 376.800 C 118.000 377.020,118.252 377.200,118.559 377.200 C 118.867 377.200,120.145 377.740,121.400 378.400 C 122.655 379.060,124.023 379.600,124.441 379.600 C 124.858 379.600,125.200 379.780,125.200 380.000 C 125.200 380.220,125.549 380.400,125.976 380.400 C 126.403 380.400,126.864 380.580,127.000 380.800 C 127.136 381.020,127.687 381.200,128.224 381.200 C 128.761 381.200,129.200 381.380,129.200 381.600 C 129.200 381.820,129.639 382.000,130.176 382.000 C 130.713 382.000,131.264 382.180,131.400 382.400 C 131.536 382.620,131.997 382.800,132.424 382.800 C 132.851 382.800,133.200 382.980,133.200 383.200 C 133.200 383.420,133.740 383.600,134.400 383.600 C 135.060 383.600,135.600 383.780,135.600 384.000 C 135.600 384.220,136.140 384.400,136.800 384.400 C 137.460 384.400,138.000 384.580,138.000 384.800 C 138.000 385.020,138.540 385.200,139.200 385.200 C 139.860 385.200,140.400 385.380,140.400 385.600 C 140.400 385.820,140.940 386.000,141.600 386.000 C 142.260 386.000,142.800 386.180,142.800 386.400 C 142.800 386.620,143.329 386.800,143.976 386.800 C 144.623 386.800,145.264 386.980,145.400 387.200 C 145.536 387.420,146.256 387.600,147.000 387.600 C 147.744 387.600,148.464 387.780,148.600 388.000 C 148.736 388.220,149.467 388.400,150.224 388.400 C 150.981 388.400,151.600 388.580,151.600 388.800 C 151.600 389.020,152.309 389.200,153.176 389.200 C 154.043 389.200,154.864 389.380,155.000 389.600 C 155.136 389.820,155.856 390.000,156.600 390.000 C 157.344 390.000,158.064 390.180,158.200 390.400 C 158.336 390.620,159.146 390.800,160.000 390.800 C 160.854 390.800,161.664 390.980,161.800 391.200 C 161.936 391.420,163.117 391.600,164.424 391.600 C 165.741 391.600,166.800 391.778,166.800 392.000 C 166.800 392.222,167.867 392.400,169.200 392.400 C 170.533 392.400,171.600 392.578,171.600 392.800 C 171.600 393.037,173.067 393.200,175.200 393.200 C 177.333 393.200,178.800 393.363,178.800 393.600 C 178.800 393.842,180.533 394.000,183.200 394.000 C 185.867 394.000,187.600 394.158,187.600 394.400 C 187.600 394.947,211.462 394.947,211.800 394.400 C 211.942 394.171,214.004 394.000,216.624 394.000 C 219.408 394.000,221.200 393.843,221.200 393.600 C 221.200 393.363,222.659 393.200,224.776 393.200 C 226.743 393.200,228.464 393.020,228.600 392.800 C 228.736 392.580,229.827 392.400,231.024 392.400 C 232.221 392.400,233.200 392.220,233.200 392.000 C 233.200 391.778,234.259 391.600,235.576 391.600 C 236.883 391.600,238.064 391.420,238.200 391.200 C 238.336 390.980,239.146 390.800,240.000 390.800 C 240.854 390.800,241.664 390.620,241.800 390.400 C 241.936 390.180,242.656 390.000,243.400 390.000 C 244.144 390.000,244.864 389.820,245.000 389.600 C 245.136 389.380,245.957 389.200,246.824 389.200 C 247.691 389.200,248.400 389.020,248.400 388.800 C 248.400 388.580,249.019 388.400,249.776 388.400 C 250.533 388.400,251.264 388.220,251.400 388.000 C 251.536 387.780,252.256 387.600,253.000 387.600 C 253.744 387.600,254.464 387.420,254.600 387.200 C 254.736 386.980,255.377 386.800,256.024 386.800 C 256.671 386.800,257.200 386.620,257.200 386.400 C 257.200 386.180,257.740 386.000,258.400 386.000 C 259.060 386.000,259.600 385.820,259.600 385.600 C 259.600 385.380,260.140 385.200,260.800 385.200 C 261.460 385.200,262.000 385.020,262.000 384.800 C 262.000 384.580,262.540 384.400,263.200 384.400 C 263.860 384.400,264.400 384.220,264.400 384.000 C 264.400 383.780,264.762 383.600,265.205 383.600 C 265.648 383.600,266.368 383.420,266.805 383.200 C 267.242 382.980,267.958 382.620,268.395 382.400 C 268.832 382.180,269.552 382.000,269.995 382.000 C 270.438 382.000,270.800 381.820,270.800 381.600 C 270.800 381.380,271.239 381.200,271.776 381.200 C 272.313 381.200,272.864 381.020,273.000 380.800 C 273.136 380.580,273.597 380.400,274.024 380.400 C 274.451 380.400,274.800 380.220,274.800 380.000 C 274.800 379.780,275.155 379.600,275.588 379.600 C 276.021 379.600,277.017 379.240,277.800 378.800 C 278.583 378.360,279.489 378.000,279.812 378.000 C 280.135 378.000,280.400 377.820,280.400 377.600 C 280.400 377.380,280.760 377.200,281.200 377.200 C 281.640 377.200,282.000 377.020,282.000 376.800 C 282.000 376.580,282.355 376.400,282.789 376.400 C 283.223 376.400,284.348 375.942,285.289 375.382 C 286.230 374.823,287.315 374.262,287.700 374.136 C 288.085 374.010,288.400 373.748,288.400 373.553 C 288.400 373.359,288.760 373.200,289.200 373.200 C 289.640 373.200,290.000 373.020,290.000 372.800 C 290.000 372.580,290.360 372.400,290.800 372.400 C 291.240 372.400,291.600 372.220,291.600 372.000 C 291.600 371.780,291.960 371.600,292.400 371.600 C 292.840 371.600,293.200 371.420,293.200 371.200 C 293.200 370.980,293.560 370.800,294.000 370.800 C 294.440 370.800,294.800 370.620,294.800 370.400 C 294.800 370.180,295.160 370.000,295.600 370.000 C 296.040 370.000,296.400 369.820,296.400 369.600 C 296.400 369.380,296.636 369.200,296.925 369.200 C 297.213 369.200,297.798 368.885,298.225 368.499 C 298.651 368.114,299.855 367.366,300.900 366.837 C 301.945 366.307,302.800 365.723,302.800 365.537 C 302.800 365.352,303.120 365.200,303.512 365.200 C 303.903 365.200,304.483 364.840,304.800 364.400 C 305.117 363.960,305.631 363.600,305.941 363.600 C 306.252 363.600,306.797 363.284,307.153 362.897 C 307.509 362.511,308.295 361.940,308.900 361.630 C 309.505 361.319,310.000 360.915,310.000 360.732 C 310.000 360.550,310.272 360.400,310.604 360.400 C 310.936 360.400,311.772 359.860,312.463 359.200 C 313.154 358.540,313.962 358.000,314.259 358.000 C 314.557 358.000,314.800 357.820,314.800 357.600 C 314.800 357.380,315.026 357.200,315.302 357.200 C 315.578 357.200,316.569 356.480,317.503 355.600 C 318.437 354.720,319.343 354.000,319.517 354.000 C 319.690 354.000,320.628 353.280,321.600 352.400 C 322.572 351.520,323.520 350.800,323.706 350.800 C 323.892 350.800,325.104 349.720,326.400 348.400 C 327.696 347.080,328.937 346.000,329.159 346.000 C 329.674 346.000,346.800 328.903,346.800 328.389 C 346.800 328.178,347.880 326.908,349.200 325.568 C 350.520 324.227,351.600 322.940,351.600 322.708 C 351.600 322.476,352.140 321.771,352.800 321.140 C 353.460 320.509,354.000 319.852,354.000 319.681 C 354.000 319.509,354.720 318.572,355.600 317.600 C 356.480 316.628,357.200 315.640,357.200 315.404 C 357.200 315.169,357.560 314.717,358.000 314.400 C 358.440 314.083,358.800 313.591,358.800 313.308 C 358.800 313.025,359.340 312.228,360.000 311.537 C 360.660 310.846,361.200 310.038,361.200 309.741 C 361.200 309.443,361.359 309.200,361.553 309.200 C 361.748 309.200,362.007 308.885,362.129 308.500 C 362.417 307.591,363.612 305.647,364.500 304.642 C 364.885 304.206,365.200 303.653,365.200 303.413 C 365.200 303.173,365.560 302.717,366.000 302.400 C 366.440 302.083,366.800 301.591,366.800 301.306 C 366.800 300.822,367.555 299.245,368.000 298.800 C 368.396 298.404,369.654 296.185,369.871 295.500 C 369.993 295.115,370.252 294.800,370.447 294.800 C 370.641 294.800,370.800 294.440,370.800 294.000 C 370.800 293.560,370.935 293.199,371.100 293.197 C 371.459 293.193,372.400 291.256,372.400 290.520 C 372.400 290.234,372.580 290.000,372.800 290.000 C 373.020 290.000,373.200 289.640,373.200 289.200 C 373.200 288.760,373.352 288.400,373.537 288.400 C 373.723 288.400,374.282 287.545,374.781 286.500 C 375.280 285.455,375.848 284.287,376.044 283.905 C 376.240 283.523,376.400 282.938,376.400 282.605 C 376.400 282.272,376.580 282.000,376.800 282.000 C 377.020 282.000,377.200 281.640,377.200 281.200 C 377.200 280.760,377.380 280.400,377.600 280.400 C 377.820 280.400,378.000 280.040,378.000 279.600 C 378.000 279.160,378.180 278.800,378.400 278.800 C 378.620 278.800,378.800 278.361,378.800 277.824 C 378.800 277.287,378.980 276.736,379.200 276.600 C 379.420 276.464,379.600 276.003,379.600 275.576 C 379.600 275.149,379.780 274.800,380.000 274.800 C 380.220 274.800,380.400 274.451,380.400 274.024 C 380.400 273.597,380.580 273.136,380.800 273.000 C 381.020 272.864,381.200 272.313,381.200 271.776 C 381.200 271.239,381.380 270.800,381.600 270.800 C 381.820 270.800,382.000 270.260,382.000 269.600 C 382.000 268.940,382.180 268.400,382.400 268.400 C 382.620 268.400,382.800 267.961,382.800 267.424 C 382.800 266.887,382.980 266.336,383.200 266.200 C 383.420 266.064,383.600 265.603,383.600 265.176 C 383.600 264.749,383.780 264.400,384.000 264.400 C 384.220 264.400,384.400 263.871,384.400 263.224 C 384.400 262.577,384.580 261.936,384.800 261.800 C 385.020 261.664,385.200 261.124,385.200 260.600 C 385.200 260.076,385.380 259.536,385.600 259.400 C 385.820 259.264,386.000 258.724,386.000 258.200 C 386.000 257.676,386.180 257.136,386.400 257.000 C 386.620 256.864,386.800 256.144,386.800 255.400 C 386.800 254.656,386.980 253.936,387.200 253.800 C 387.420 253.664,387.600 253.124,387.600 252.600 C 387.600 252.076,387.780 251.536,388.000 251.400 C 388.220 251.264,388.400 250.533,388.400 249.776 C 388.400 249.019,388.580 248.400,388.800 248.400 C 389.020 248.400,389.200 247.691,389.200 246.824 C 389.200 245.957,389.380 245.136,389.600 245.000 C 389.820 244.864,390.000 244.054,390.000 243.200 C 390.000 242.346,390.180 241.536,390.400 241.400 C 390.620 241.264,390.800 240.263,390.800 239.176 C 390.800 238.089,390.980 237.200,391.200 237.200 C 391.420 237.200,391.600 236.221,391.600 235.024 C 391.600 233.827,391.780 232.736,392.000 232.600 C 392.220 232.464,392.400 231.409,392.400 230.256 C 392.400 229.103,392.566 227.989,392.770 227.780 C 393.176 227.363,393.516 223.637,393.837 216.100 C 393.952 213.405,394.215 211.200,394.423 211.200 C 394.949 211.200,394.926 188.125,394.400 187.800 C 394.173 187.660,394.000 185.670,394.000 183.200 C 394.000 180.730,393.827 178.740,393.600 178.600 C 393.380 178.464,393.200 177.024,393.200 175.400 C 393.200 173.776,393.020 172.336,392.800 172.200 C 392.580 172.064,392.400 170.894,392.400 169.600 C 392.400 168.306,392.220 167.136,392.000 167.000 C 391.780 166.864,391.600 165.683,391.600 164.376 C 391.600 163.059,391.422 162.000,391.200 162.000 C 390.980 162.000,390.800 161.291,390.800 160.424 C 390.800 159.557,390.620 158.736,390.400 158.600 C 390.180 158.464,390.000 157.553,390.000 156.576 C 390.000 155.599,389.820 154.800,389.600 154.800 C 389.380 154.800,389.200 154.080,389.200 153.200 C 389.200 152.320,389.020 151.600,388.800 151.600 C 388.580 151.600,388.400 150.880,388.400 150.000 C 388.400 149.120,388.220 148.400,388.000 148.400 C 387.780 148.400,387.600 147.860,387.600 147.200 C 387.600 146.540,387.420 146.000,387.200 146.000 C 386.980 146.000,386.800 145.280,386.800 144.400 C 386.800 143.520,386.620 142.800,386.400 142.800 C 386.180 142.800,386.000 142.260,386.000 141.600 C 386.000 140.940,385.820 140.400,385.600 140.400 C 385.380 140.400,385.200 139.860,385.200 139.200 C 385.200 138.540,385.020 138.000,384.800 138.000 C 384.580 138.000,384.400 137.561,384.400 137.024 C 384.400 136.487,384.220 135.936,384.000 135.800 C 383.780 135.664,383.600 135.124,383.600 134.600 C 383.600 134.076,383.420 133.536,383.200 133.400 C 382.980 133.264,382.800 132.724,382.800 132.200 C 382.800 131.676,382.620 131.136,382.400 131.000 C 382.180 130.864,382.000 130.403,382.000 129.976 C 382.000 129.549,381.820 129.200,381.600 129.200 C 381.380 129.200,381.200 128.761,381.200 128.224 C 381.200 127.687,381.020 127.136,380.800 127.000 C 380.580 126.864,380.400 126.403,380.400 125.976 C 380.400 125.549,380.220 125.200,380.000 125.200 C 379.780 125.200,379.600 124.851,379.600 124.424 C 379.600 123.997,379.420 123.536,379.200 123.400 C 378.980 123.264,378.800 122.713,378.800 122.176 C 378.800 121.639,378.620 121.200,378.400 121.200 C 378.180 121.200,378.000 120.840,378.000 120.400 C 378.000 119.960,377.820 119.600,377.600 119.600 C 377.380 119.600,377.200 119.240,377.200 118.800 C 377.200 118.360,377.020 118.000,376.800 118.000 C 376.580 118.000,376.400 117.728,376.400 117.395 C 376.400 116.757,376.149 116.163,375.048 114.200 C 374.678 113.540,374.069 112.325,373.694 111.500 C 373.318 110.675,372.874 110.000,372.706 110.000 C 372.538 110.000,372.400 109.640,372.400 109.200 C 372.400 108.760,372.220 108.400,372.000 108.400 C 371.780 108.400,371.600 108.040,371.600 107.600 C 371.600 107.160,371.420 106.800,371.200 106.800 C 370.980 106.800,370.800 106.522,370.800 106.183 C 370.800 105.844,370.440 105.180,370.000 104.708 C 369.560 104.236,369.200 103.613,369.200 103.325 C 369.200 103.036,369.020 102.800,368.800 102.800 C 368.580 102.800,368.400 102.440,368.400 102.000 C 368.400 101.560,368.220 101.200,368.000 101.200 C 367.780 101.200,367.600 100.922,367.600 100.583 C 367.600 100.244,367.240 99.580,366.800 99.108 C 366.360 98.636,366.000 98.013,366.000 97.725 C 366.000 97.436,365.820 97.200,365.600 97.200 C 365.380 97.200,365.200 96.964,365.200 96.675 C 365.200 96.387,364.840 95.764,364.400 95.292 C 363.960 94.820,363.600 94.156,363.600 93.817 C 363.600 93.478,363.420 93.200,363.200 93.200 C 362.980 93.200,362.800 93.022,362.800 92.803 C 362.800 92.456,361.071 89.980,359.374 87.895 C 359.058 87.508,358.800 87.047,358.800 86.871 C 358.800 86.695,358.480 86.202,358.089 85.775 C 357.698 85.349,356.942 84.370,356.408 83.600 C 355.875 82.830,355.114 81.909,354.719 81.553 C 354.324 81.197,354.000 80.724,354.000 80.501 C 354.000 80.279,353.280 79.355,352.400 78.448 C 351.520 77.541,350.800 76.609,350.800 76.377 C 350.800 76.145,349.720 74.896,348.400 73.600 C 347.080 72.304,346.000 71.069,346.000 70.855 C 346.000 70.349,328.903 53.200,328.399 53.200 C 328.188 53.200,326.887 52.121,325.508 50.802 C 324.129 49.483,322.815 48.403,322.588 48.402 C 322.362 48.401,321.917 48.040,321.600 47.600 C 321.283 47.160,320.829 46.800,320.591 46.800 C 320.353 46.800,319.178 45.903,317.979 44.806 C 316.781 43.710,315.615 42.810,315.388 42.806 C 315.162 42.803,314.717 42.440,314.400 42.000 C 314.083 41.560,313.591 41.200,313.308 41.200 C 313.025 41.200,312.228 40.660,311.537 40.000 C 310.846 39.340,310.121 38.800,309.924 38.800 C 309.727 38.800,309.180 38.440,308.708 38.000 C 308.236 37.560,307.613 37.200,307.325 37.200 C 307.036 37.200,306.800 37.041,306.800 36.847 C 306.800 36.652,306.485 36.393,306.100 36.271 C 305.191 35.983,303.247 34.788,302.242 33.900 C 301.806 33.515,301.213 33.200,300.925 33.200 C 300.636 33.200,300.400 33.020,300.400 32.800 C 300.400 32.580,300.122 32.400,299.783 32.400 C 299.444 32.400,298.780 32.040,298.308 31.600 C 297.836 31.160,297.213 30.800,296.925 30.800 C 296.636 30.800,296.400 30.620,296.400 30.400 C 296.400 30.180,296.040 30.000,295.600 30.000 C 295.160 30.000,294.800 29.820,294.800 29.600 C 294.800 29.380,294.455 29.200,294.033 29.200 C 293.612 29.200,293.207 29.065,293.133 28.900 C 292.971 28.535,289.676 26.800,289.145 26.800 C 288.937 26.800,288.380 26.440,287.908 26.000 C 287.101 25.249,286.330 24.998,285.400 25.186 C 285.180 25.230,285.132 25.134,285.294 24.973 C 285.656 24.610,283.787 23.600,282.754 23.600 C 282.339 23.600,282.000 23.420,282.000 23.200 C 282.000 22.980,281.748 22.800,281.441 22.800 C 281.133 22.800,279.855 22.260,278.600 21.600 C 277.345 20.940,275.977 20.400,275.559 20.400 C 275.142 20.400,274.800 20.220,274.800 20.000 C 274.800 19.780,274.451 19.600,274.024 19.600 C 273.597 19.600,273.136 19.420,273.000 19.200 C 272.864 18.980,272.313 18.800,271.776 18.800 C 271.239 18.800,270.800 18.620,270.800 18.400 C 270.800 18.180,270.260 18.000,269.600 18.000 C 268.940 18.000,268.400 17.820,268.400 17.600 C 268.400 17.380,268.040 17.200,267.600 17.200 C 267.160 17.200,266.800 17.020,266.800 16.800 C 266.800 16.580,266.260 16.400,265.600 16.400 C 264.940 16.400,264.400 16.220,264.400 16.000 C 264.400 15.780,263.860 15.600,263.200 15.600 C 262.540 15.600,262.000 15.420,262.000 15.200 C 262.000 14.980,261.460 14.800,260.800 14.800 C 260.140 14.800,259.600 14.620,259.600 14.400 C 259.600 14.180,259.060 14.000,258.400 14.000 C 257.740 14.000,257.200 13.820,257.200 13.600 C 257.200 13.380,256.581 13.200,255.824 13.200 C 255.067 13.200,254.336 13.020,254.200 12.800 C 254.064 12.580,253.423 12.400,252.776 12.400 C 252.129 12.400,251.600 12.220,251.600 12.000 C 251.600 11.780,250.880 11.600,250.000 11.600 C 249.120 11.600,248.400 11.420,248.400 11.200 C 248.400 10.980,247.691 10.800,246.824 10.800 C 245.957 10.800,245.136 10.620,245.000 10.400 C 244.864 10.180,243.953 10.000,242.976 10.000 C 241.999 10.000,241.200 9.820,241.200 9.600 C 241.200 9.380,240.491 9.200,239.624 9.200 C 238.757 9.200,237.936 9.020,237.800 8.800 C 237.664 8.580,236.584 8.400,235.400 8.400 C 234.216 8.400,233.136 8.220,233.000 8.000 C 232.864 7.780,231.694 7.600,230.400 7.600 C 229.106 7.600,227.936 7.420,227.800 7.200 C 227.664 6.980,226.134 6.800,224.400 6.800 C 222.666 6.800,221.136 6.620,221.000 6.400 C 220.860 6.173,218.870 6.000,216.400 6.000 C 213.930 6.000,211.940 5.827,211.800 5.600 C 211.462 5.053,187.600 5.053,187.600 5.600 M210.000 18.209 C 214.070 18.339,218.390 18.602,219.600 18.794 C 220.810 18.986,223.330 19.349,225.200 19.601 C 229.256 20.147,232.845 20.806,240.600 22.430 C 242.414 22.809,246.469 23.884,252.700 25.635 C 253.415 25.836,254.585 26.162,255.300 26.360 C 257.614 27.000,267.092 30.650,273.200 33.252 C 275.501 34.233,287.147 40.074,289.647 41.500 C 291.030 42.290,293.619 43.862,298.400 46.815 C 299.610 47.563,301.320 48.680,302.200 49.298 C 303.080 49.916,304.880 51.170,306.200 52.084 C 315.399 58.453,329.593 71.422,337.629 80.800 C 339.042 82.450,340.294 83.890,340.410 84.000 C 340.526 84.110,341.241 85.010,342.000 86.000 C 342.759 86.990,343.474 87.890,343.591 88.000 C 347.404 91.609,358.073 108.816,363.679 120.400 C 367.117 127.504,367.575 128.495,368.346 130.500 C 368.537 130.995,368.897 131.895,369.146 132.500 C 369.973 134.504,370.319 135.382,370.992 137.180 C 371.823 139.402,374.107 146.399,374.785 148.800 C 375.064 149.790,375.431 151.050,375.600 151.600 C 376.370 154.108,376.982 156.673,378.769 164.900 C 379.118 166.505,379.545 169.148,380.383 174.898 C 383.089 193.461,382.429 217.998,378.764 235.100 C 377.190 242.446,376.370 245.895,375.600 248.400 C 375.431 248.950,375.066 250.210,374.788 251.200 C 374.065 253.776,371.241 262.416,370.734 263.600 C 370.499 264.150,370.148 264.913,369.953 265.295 C 369.759 265.677,369.600 266.174,369.600 266.399 C 369.600 266.624,369.219 267.662,368.753 268.704 C 368.288 269.747,367.672 271.140,367.384 271.800 C 364.551 278.305,360.674 286.079,358.337 289.941 C 357.492 291.338,356.800 292.543,356.800 292.617 C 356.800 292.892,351.853 300.689,350.085 303.200 C 347.877 306.337,343.908 311.722,343.601 312.000 C 343.479 312.110,342.757 313.010,341.995 314.000 C 341.234 314.990,340.107 316.340,339.492 317.000 C 338.876 317.660,337.794 318.956,337.086 319.880 C 335.518 321.929,323.268 334.089,319.400 337.436 C 310.818 344.863,301.692 351.450,292.633 356.757 C 291.735 357.283,290.370 358.082,289.600 358.532 C 287.430 359.803,275.659 365.698,273.200 366.746 C 265.527 370.018,256.858 373.127,250.600 374.852 C 249.720 375.094,248.550 375.438,248.000 375.615 C 247.450 375.792,245.380 376.321,243.400 376.790 C 235.127 378.752,234.494 378.870,224.200 380.372 C 220.201 380.955,213.162 381.549,206.100 381.898 C 198.052 382.296,184.212 381.599,175.800 380.372 C 165.506 378.870,164.873 378.752,156.600 376.790 C 154.620 376.321,152.550 375.792,152.000 375.615 C 151.450 375.438,150.280 375.094,149.400 374.852 C 143.155 373.131,134.623 370.072,126.800 366.750 C 124.424 365.741,112.751 359.880,110.300 358.466 C 109.475 357.990,108.182 357.250,107.427 356.822 C 100.307 352.788,88.081 344.051,82.549 339.046 C 81.362 337.971,79.774 336.621,79.022 336.046 C 77.097 334.574,64.612 321.928,61.996 318.800 C 60.800 317.370,59.726 316.110,59.610 316.000 C 53.839 310.516,39.688 287.866,33.995 275.000 C 33.509 273.900,32.681 272.050,32.155 270.888 C 31.630 269.727,31.200 268.599,31.200 268.383 C 31.200 268.166,31.035 267.677,30.834 267.295 C 29.693 265.133,26.345 255.558,24.962 250.508 C 24.615 249.239,24.154 247.570,23.939 246.800 C 22.569 241.906,20.712 232.744,19.642 225.600 C 16.738 206.213,17.637 180.130,21.833 162.000 C 22.164 160.570,22.619 158.590,22.843 157.600 C 23.313 155.522,23.958 153.039,24.400 151.600 C 24.569 151.050,24.934 149.790,25.212 148.800 C 25.935 146.224,28.759 137.584,29.266 136.400 C 29.501 135.850,29.852 135.087,30.047 134.705 C 30.241 134.323,30.400 133.826,30.400 133.601 C 30.400 133.376,30.743 132.428,31.162 131.496 C 31.580 130.563,32.255 128.993,32.662 128.007 C 34.038 124.665,39.876 112.990,41.542 110.247 C 42.454 108.746,43.200 107.452,43.200 107.371 C 43.200 107.038,49.021 97.998,50.908 95.400 C 53.920 91.253,56.170 88.226,56.409 88.000 C 56.526 87.890,57.241 86.990,58.000 86.000 C 58.759 85.010,59.478 84.110,59.600 84.000 C 59.721 83.890,61.463 81.910,63.471 79.600 C 68.860 73.402,79.322 63.239,85.000 58.688 C 93.818 51.619,98.987 48.019,108.000 42.666 C 111.687 40.477,122.851 34.764,126.400 33.252 C 132.108 30.819,141.543 27.260,144.600 26.388 C 145.260 26.199,146.430 25.865,147.200 25.645 C 154.806 23.472,157.543 22.796,164.200 21.446 C 169.584 20.354,173.778 19.672,180.400 18.813 C 184.223 18.317,198.544 17.643,201.000 17.844 C 201.880 17.916,205.930 18.080,210.000 18.209 " stroke="none" fill="#737374" fill-rule="evenodd"></path><path id="path2" d="M189.400 18.411 C 185.660 18.581,181.160 18.917,179.400 19.159 C 166.381 20.944,161.520 21.921,149.597 25.148 C 145.221 26.332,138.725 28.490,135.000 29.998 C 134.560 30.176,133.120 30.731,131.800 31.230 C 127.599 32.821,114.929 38.847,111.000 41.124 C 100.139 47.418,88.516 55.560,81.845 61.547 C 72.647 69.800,63.931 78.884,57.582 86.830 C 48.210 98.560,38.508 114.707,33.084 127.600 C 32.760 128.370,32.223 129.630,31.891 130.400 C 28.821 137.519,24.576 150.678,22.825 158.500 C 22.591 159.545,22.226 161.165,22.014 162.100 C 20.873 167.125,19.966 173.067,18.763 183.400 C 17.765 191.972,18.240 214.695,19.610 223.902 C 20.800 231.903,21.200 234.226,22.020 237.900 C 23.464 244.366,23.384 244.047,25.227 250.600 C 26.776 256.105,27.949 259.641,29.820 264.439 C 31.335 268.324,31.728 269.274,33.158 272.500 C 33.621 273.545,34.377 275.255,34.838 276.300 C 39.650 287.211,49.051 302.554,56.958 312.400 C 67.880 326.001,82.206 339.687,93.800 347.597 C 94.900 348.348,96.001 349.159,96.247 349.400 C 96.931 350.069,107.133 356.516,110.400 358.344 C 115.774 361.350,127.358 366.890,132.000 368.674 C 133.430 369.224,135.050 369.861,135.600 370.090 C 137.813 371.012,138.337 371.201,141.800 372.326 C 147.182 374.075,150.623 375.080,154.400 376.008 C 156.270 376.467,158.430 377.002,159.200 377.196 C 170.621 380.080,185.186 381.680,200.000 381.680 C 214.816 381.680,229.163 380.105,240.800 377.200 C 241.570 377.008,243.100 376.638,244.200 376.379 C 246.023 375.950,247.077 375.661,250.000 374.791 C 250.550 374.627,251.810 374.266,252.800 373.990 C 255.212 373.315,261.577 371.251,262.700 370.779 C 263.195 370.570,264.050 370.220,264.600 370.000 C 265.150 369.780,266.005 369.437,266.500 369.237 C 266.995 369.038,268.120 368.605,269.000 368.276 C 272.667 366.903,285.819 360.523,289.400 358.379 C 290.500 357.721,291.670 357.066,292.000 356.924 C 292.330 356.782,293.320 356.182,294.200 355.590 C 295.080 354.999,297.013 353.782,298.496 352.885 C 299.979 351.988,302.388 350.387,303.850 349.327 C 308.013 346.308,313.380 342.276,313.600 342.002 C 313.710 341.865,314.179 341.494,314.643 341.177 C 318.639 338.443,332.117 325.333,338.060 318.400 C 349.686 304.836,360.351 287.922,366.559 273.200 C 366.977 272.210,367.632 270.680,368.015 269.800 C 369.070 267.380,370.799 262.867,371.617 260.400 C 372.018 259.190,372.704 257.210,373.141 256.000 C 373.579 254.790,374.327 252.360,374.804 250.600 C 375.281 248.840,375.847 246.770,376.062 246.000 C 377.408 241.180,379.072 232.913,380.009 226.400 C 381.390 216.794,381.690 212.106,381.697 200.000 C 381.704 188.350,381.552 185.622,380.369 176.200 C 379.396 168.437,377.273 157.845,375.600 152.400 C 375.431 151.850,375.064 150.590,374.784 149.600 C 373.027 143.383,369.670 134.033,366.743 127.200 C 365.578 124.481,359.980 113.246,358.571 110.800 C 343.699 84.975,324.789 64.636,300.800 48.662 C 297.204 46.268,293.785 44.092,292.273 43.235 C 291.573 42.838,290.190 42.043,289.200 41.468 C 279.867 36.052,261.723 28.281,252.564 25.777 C 251.264 25.421,249.660 24.981,249.000 24.799 C 229.237 19.337,211.321 17.417,189.400 18.411 M291.762 87.220 C 294.010 89.194,294.033 89.547,293.910 121.014 C 293.767 157.778,295.584 154.107,277.630 153.918 C 263.285 153.767,263.128 153.680,262.888 145.800 C 262.695 139.441,262.016 138.800,255.474 138.800 C 251.862 138.800,251.167 138.690,250.251 137.969 C 248.206 136.360,248.213 136.414,248.000 119.510 C 247.755 100.072,248.443 101.800,240.951 101.800 L 235.924 101.800 234.964 103.000 L 234.004 104.200 234.002 209.520 C 234.000 324.583,234.177 316.059,231.754 317.965 C 230.698 318.795,230.522 318.800,199.821 318.800 L 168.950 318.800 167.924 317.700 C 167.359 317.095,166.696 316.207,166.449 315.726 C 166.120 315.087,166.000 286.653,165.999 209.726 C 165.997 106.230,165.985 104.580,165.218 103.322 C 164.256 101.745,163.035 101.470,157.837 101.660 C 151.758 101.883,152.240 100.409,152.000 119.510 C 151.787 136.414,151.794 136.360,149.749 137.969 C 148.833 138.690,148.138 138.800,144.526 138.800 C 137.901 138.800,137.204 139.435,137.193 145.474 C 137.186 150.078,136.345 152.125,133.988 153.281 C 131.745 154.381,111.417 154.331,109.239 153.220 C 106.236 151.688,106.372 153.373,106.493 119.178 L 106.600 88.708 108.167 87.354 L 109.733 86.000 200.053 86.000 L 290.372 86.000 291.762 87.220 " stroke="none" fill="#444464" fill-rule="evenodd"></path><path id="path3" d="M191.100 18.293 C 192.035 18.377,193.565 18.377,194.500 18.293 C 195.435 18.209,194.670 18.140,192.800 18.140 C 190.930 18.140,190.165 18.209,191.100 18.293 M205.500 18.293 C 206.435 18.377,207.965 18.377,208.900 18.293 C 209.835 18.209,209.070 18.140,207.200 18.140 C 205.330 18.140,204.565 18.209,205.500 18.293 M182.305 18.683 C 182.802 18.779,183.522 18.775,183.905 18.675 C 184.287 18.575,183.880 18.496,183.000 18.501 C 182.120 18.505,181.807 18.587,182.305 18.683 M216.305 18.683 C 216.802 18.779,217.522 18.775,217.905 18.675 C 218.287 18.575,217.880 18.496,217.000 18.501 C 216.120 18.505,215.807 18.587,216.305 18.683 M76.981 65.700 L 75.400 67.400 77.100 65.819 C 78.035 64.949,78.800 64.184,78.800 64.119 C 78.800 63.816,78.452 64.119,76.981 65.700 M324.200 67.200 C 325.506 68.520,326.665 69.600,326.775 69.600 C 326.885 69.600,325.906 68.520,324.600 67.200 C 323.294 65.880,322.135 64.800,322.025 64.800 C 321.915 64.800,322.894 65.880,324.200 67.200 M66.987 75.700 L 64.600 78.200 67.100 75.813 C 69.422 73.595,69.783 73.200,69.487 73.200 C 69.426 73.200,68.301 74.325,66.987 75.700 M332.600 75.600 C 333.906 76.920,335.065 78.000,335.175 78.000 C 335.285 78.000,334.306 76.920,333.000 75.600 C 331.694 74.280,330.535 73.200,330.425 73.200 C 330.315 73.200,331.294 74.280,332.600 75.600 M108.167 87.354 L 106.600 88.708 106.493 119.178 C 106.372 153.373,106.236 151.688,109.239 153.220 C 111.417 154.331,131.745 154.381,133.988 153.281 C 136.345 152.125,137.186 150.078,137.193 145.474 C 137.204 139.435,137.901 138.800,144.526 138.800 C 148.138 138.800,148.833 138.690,149.749 137.969 C 151.794 136.360,151.787 136.414,152.000 119.510 C 152.240 100.409,151.758 101.883,157.837 101.660 C 163.035 101.470,164.256 101.745,165.218 103.322 C 165.985 104.580,165.997 106.230,165.999 209.726 C 166.000 286.653,166.120 315.087,166.449 315.726 C 166.696 316.207,167.359 317.095,167.924 317.700 L 168.950 318.800 199.821 318.800 C 230.522 318.800,230.698 318.795,231.754 317.965 C 234.177 316.059,234.000 324.583,234.002 209.520 L 234.004 104.200 234.964 103.000 L 235.924 101.800 240.951 101.800 C 248.443 101.800,247.755 100.072,248.000 119.510 C 248.213 136.414,248.206 136.360,250.251 137.969 C 251.167 138.690,251.862 138.800,255.474 138.800 C 262.016 138.800,262.695 139.441,262.888 145.800 C 263.128 153.680,263.285 153.767,277.630 153.918 C 295.584 154.107,293.767 157.778,293.910 121.014 C 294.033 89.547,294.010 89.194,291.762 87.220 L 290.372 86.000 200.053 86.000 L 109.733 86.000 108.167 87.354 M291.615 87.556 L 293.000 88.712 293.098 119.256 C 293.204 152.172,293.280 150.920,291.072 152.561 C 289.612 153.646,269.471 154.073,266.613 153.080 C 264.118 152.213,263.200 150.101,263.200 145.226 C 263.200 139.324,262.172 138.400,255.606 138.400 C 248.335 138.400,248.648 139.221,248.400 119.467 L 248.200 103.533 246.857 102.334 L 245.515 101.135 240.724 101.267 L 235.932 101.400 234.766 102.706 L 233.600 104.013 233.600 209.426 C 233.600 324.109,233.758 316.218,231.435 317.741 C 229.939 318.720,169.883 318.754,168.487 317.776 C 166.252 316.211,166.400 323.882,166.400 209.426 L 166.400 104.013 165.234 102.706 L 164.068 101.400 159.227 101.266 L 154.387 101.133 152.994 102.526 L 151.600 103.920 151.590 118.660 C 151.577 138.739,151.702 138.395,144.474 138.398 C 137.812 138.401,136.800 139.265,136.800 144.943 C 136.800 150.094,136.000 152.028,133.469 152.995 C 130.635 154.077,110.489 153.721,108.928 152.561 C 106.720 150.920,106.796 152.172,106.902 119.256 L 107.000 88.712 108.385 87.556 L 109.770 86.400 200.000 86.400 L 290.230 86.400 291.615 87.556 M378.456 164.800 C 378.456 165.130,378.611 165.760,378.800 166.200 C 379.017 166.704,379.144 166.778,379.144 166.400 C 379.144 166.070,378.989 165.440,378.800 165.000 C 378.583 164.496,378.456 164.422,378.456 164.800 M18.493 184.000 C 18.493 184.770,18.575 185.085,18.676 184.700 C 18.776 184.315,18.776 183.685,18.676 183.300 C 18.575 182.915,18.493 183.230,18.493 184.000 M381.293 184.000 C 381.293 184.770,381.375 185.085,381.476 184.700 C 381.576 184.315,381.576 183.685,381.476 183.300 C 381.375 182.915,381.293 183.230,381.293 184.000 M18.137 193.000 C 18.139 194.760,18.209 195.430,18.293 194.489 C 18.378 193.549,18.377 192.109,18.291 191.289 C 18.205 190.470,18.136 191.240,18.137 193.000 M381.737 193.000 C 381.739 194.760,381.809 195.430,381.893 194.489 C 381.978 193.549,381.977 192.109,381.891 191.289 C 381.805 190.470,381.736 191.240,381.737 193.000 M17.701 199.800 C 17.705 200.680,17.787 200.993,17.883 200.495 C 17.979 199.998,17.975 199.278,17.875 198.895 C 17.775 198.513,17.696 198.920,17.701 199.800 M18.140 207.200 C 18.140 209.070,18.209 209.835,18.293 208.900 C 18.377 207.965,18.377 206.435,18.293 205.500 C 18.209 204.565,18.140 205.330,18.140 207.200 M381.740 207.200 C 381.740 209.070,381.809 209.835,381.893 208.900 C 381.977 207.965,381.977 206.435,381.893 205.500 C 381.809 204.565,381.740 205.330,381.740 207.200 M18.501 216.200 C 18.505 217.080,18.587 217.393,18.683 216.895 C 18.779 216.398,18.775 215.678,18.675 215.295 C 18.575 214.913,18.496 215.320,18.501 216.200 M381.293 216.000 C 381.293 216.770,381.375 217.085,381.476 216.700 C 381.576 216.315,381.576 215.685,381.476 215.300 C 381.375 214.915,381.293 215.230,381.293 216.000 M378.629 234.229 C 378.481 234.815,378.438 235.372,378.532 235.466 C 378.627 235.560,378.824 235.158,378.971 234.571 C 379.119 233.985,379.162 233.428,379.068 233.334 C 378.973 233.240,378.776 233.642,378.629 234.229 M66.600 324.000 C 67.683 325.100,68.660 326.000,68.770 326.000 C 68.880 326.000,68.083 325.100,67.000 324.000 C 65.917 322.900,64.940 322.000,64.830 322.000 C 64.720 322.000,65.517 322.900,66.600 324.000 M332.985 324.100 L 331.000 326.200 333.100 324.215 C 334.255 323.123,335.200 322.178,335.200 322.115 C 335.200 321.817,334.829 322.149,332.985 324.100 M325.385 331.700 L 323.400 333.800 325.500 331.815 C 327.451 329.971,327.783 329.600,327.485 329.600 C 327.422 329.600,326.477 330.545,325.385 331.700 M75.000 332.400 C 76.083 333.500,77.060 334.400,77.170 334.400 C 77.280 334.400,76.483 333.500,75.400 332.400 C 74.317 331.300,73.340 330.400,73.230 330.400 C 73.120 330.400,73.917 331.300,75.000 332.400 M181.700 381.076 C 182.085 381.176,182.715 381.176,183.100 381.076 C 183.485 380.975,183.170 380.893,182.400 380.893 C 181.630 380.893,181.315 380.975,181.700 381.076 M216.900 381.076 C 217.285 381.176,217.915 381.176,218.300 381.076 C 218.685 380.975,218.370 380.893,217.600 380.893 C 216.830 380.893,216.515 380.975,216.900 381.076 M185.100 381.482 C 185.595 381.578,186.405 381.578,186.900 381.482 C 187.395 381.387,186.990 381.309,186.000 381.309 C 185.010 381.309,184.605 381.387,185.100 381.482 M213.100 381.482 C 213.595 381.578,214.405 381.578,214.900 381.482 C 215.395 381.387,214.990 381.309,214.000 381.309 C 213.010 381.309,212.605 381.387,213.100 381.482 M194.900 381.887 C 195.505 381.978,196.495 381.978,197.100 381.887 C 197.705 381.795,197.210 381.720,196.000 381.720 C 194.790 381.720,194.295 381.795,194.900 381.887 M202.900 381.887 C 203.505 381.978,204.495 381.978,205.100 381.887 C 205.705 381.795,205.210 381.720,204.000 381.720 C 202.790 381.720,202.295 381.795,202.900 381.887 " stroke="none" fill="#646c83" fill-rule="evenodd"></path><path id="path4" d="M108.385 87.556 L 107.000 88.712 106.902 119.256 C 106.796 152.172,106.720 150.920,108.928 152.561 C 110.489 153.721,130.635 154.077,133.469 152.995 C 136.000 152.028,136.800 150.094,136.800 144.943 C 136.800 139.265,137.812 138.401,144.474 138.398 C 151.702 138.395,151.577 138.739,151.590 118.660 L 151.600 103.920 152.994 102.526 L 154.387 101.133 159.227 101.266 L 164.068 101.400 165.234 102.706 L 166.400 104.013 166.400 209.426 C 166.400 323.882,166.252 316.211,168.487 317.776 C 169.883 318.754,229.939 318.720,231.435 317.741 C 233.758 316.218,233.600 324.109,233.600 209.426 L 233.600 104.013 234.766 102.706 L 235.932 101.400 240.724 101.267 L 245.515 101.135 246.857 102.334 L 248.200 103.533 248.400 119.467 C 248.648 139.221,248.335 138.400,255.606 138.400 C 262.172 138.400,263.200 139.324,263.200 145.226 C 263.200 150.101,264.118 152.213,266.613 153.080 C 269.471 154.073,289.612 153.646,291.072 152.561 C 293.280 150.920,293.204 152.172,293.098 119.256 L 293.000 88.712 291.615 87.556 L 290.230 86.400 200.000 86.400 L 109.770 86.400 108.385 87.556 M291.440 88.160 L 292.800 89.520 292.799 119.660 C 292.797 148.684,292.769 149.847,292.028 151.060 C 290.919 152.881,288.816 153.202,278.080 153.190 C 264.385 153.176,264.338 153.153,263.990 146.298 C 263.622 139.047,262.571 138.000,255.662 138.000 C 248.736 138.000,248.842 138.302,248.817 118.526 C 248.799 103.372,248.732 102.834,246.710 101.602 C 245.006 100.562,237.475 100.431,235.587 101.407 C 233.005 102.742,233.200 93.928,233.200 209.193 C 233.200 322.394,233.324 315.827,231.153 317.348 C 230.312 317.937,227.293 318.000,200.000 318.000 C 172.707 318.000,169.688 317.937,168.847 317.348 C 166.676 315.827,166.800 322.394,166.800 209.193 C 166.800 93.928,166.995 102.742,164.413 101.407 C 162.787 100.566,155.225 100.559,153.604 101.398 C 151.159 102.662,151.200 102.368,151.198 118.589 C 151.195 138.326,151.310 138.000,144.307 138.000 C 137.344 138.000,136.374 138.941,136.013 146.043 C 135.650 153.198,135.693 153.176,121.920 153.190 C 111.184 153.202,109.081 152.881,107.972 151.060 C 107.231 149.847,107.203 148.684,107.201 119.660 L 107.200 89.520 108.560 88.160 L 109.920 86.800 200.000 86.800 L 290.080 86.800 291.440 88.160 " stroke="none" fill="#9c9cac" fill-rule="evenodd"></path></g></svg>